<svg width="24" height="24" viewBox="0 0 24 24" fill="none" xmlns="http://www.w3.org/2000/svg">
<path d="M6.60863 2.01289C8.10777 0.720162 10.0198 0.00620743 11.9993 0C16.0341 0 19.3834 2.99983 19.7479 6.86811C22.1358 7.2056 23.9987 9.20498 23.9987 11.6588C23.9987 14.3527 21.7518 16.4991 19.0294 16.4991H14.9992C14.8003 16.4991 14.6095 16.4201 14.4689 16.2794C14.3282 16.1388 14.2492 15.948 14.2492 15.7491C14.2492 15.5502 14.3282 15.3595 14.4689 15.2188C14.6095 15.0782 14.8003 14.9992 14.9992 14.9992H19.0309C20.9673 14.9992 22.4987 13.4812 22.4987 11.6588C22.4987 9.83495 20.9688 8.31703 19.0294 8.31703H18.2795V7.56708C18.281 4.23726 15.4911 1.49992 11.9993 1.49992C10.3792 1.50639 8.81477 2.09153 7.58807 3.14982C6.45264 4.12777 5.85867 5.3067 5.85867 6.23215V6.90411L5.19121 6.97761C3.09583 7.2071 1.49992 8.9275 1.49992 10.9764C1.49992 13.1768 3.34481 14.9992 5.67118 14.9992H8.99949C9.1984 14.9992 9.38915 15.0782 9.5298 15.2188C9.67044 15.3595 9.74945 15.5502 9.74945 15.7491C9.74945 15.948 9.67044 16.1388 9.5298 16.2794C9.38915 16.4201 9.1984 16.4991 8.99949 16.4991H5.67118C2.56186 16.4991 0 14.0482 0 10.9764C0 8.33203 1.89889 6.14216 4.41275 5.58719C4.62724 4.29276 5.45969 3.00283 6.60863 2.01289Z" fill="white"/>
<path d="M11.4697 23.7801C11.5393 23.8499 11.6221 23.9053 11.7132 23.9432C11.8043 23.981 11.902 24.0004 12.0007 24.0004C12.0993 24.0004 12.197 23.981 12.2881 23.9432C12.3792 23.9053 12.462 23.8499 12.5316 23.7801L17.0314 19.2803C17.1722 19.1395 17.2513 18.9485 17.2513 18.7494C17.2513 18.5502 17.1722 18.3592 17.0314 18.2184C16.8906 18.0776 16.6996 17.9985 16.5004 17.9985C16.3013 17.9985 16.1103 18.0776 15.9694 18.2184L12.7506 21.4387V8.24996C12.7506 8.05106 12.6716 7.8603 12.531 7.71966C12.3903 7.57901 12.1996 7.5 12.0007 7.5C11.8018 7.5 11.611 7.57901 11.4704 7.71966C11.3297 7.8603 11.2507 8.05106 11.2507 8.24996V21.4387L8.03188 18.2184C7.89105 18.0776 7.70006 17.9985 7.50091 17.9985C7.30175 17.9985 7.11076 18.0776 6.96994 18.2184C6.82911 18.3592 6.75 18.5502 6.75 18.7494C6.75 18.9485 6.82911 19.1395 6.96994 19.2803L11.4697 23.7801Z" fill="white"/>
</svg>
