<svg width="15" height="14" viewBox="0 0 15 14" fill="none" xmlns="http://www.w3.org/2000/svg">
<path fill-rule="evenodd" clip-rule="evenodd" d="M13.0124 11.0139H11.2527V13.4976H4.21378V11.0139H2.45406C1.98735 11.0139 1.53976 10.8394 1.20975 10.5289C0.879734 10.2184 0.694336 9.7972 0.694336 9.35804V5.21847C0.694336 4.77931 0.879734 4.35815 1.20975 4.04762C1.53976 3.73709 1.98735 3.56264 2.45406 3.56264H4.21378V0.250977H11.2527V3.56264H13.0124C13.4791 3.56264 13.9267 3.73709 14.2567 4.04762C14.5867 4.35815 14.7721 4.77931 14.7721 5.21847V9.35804C14.7721 9.7972 14.5867 10.2184 14.2567 10.5289C13.9267 10.8394 13.4791 11.0139 13.0124 11.0139ZM5.97351 11.8418H9.49295V8.53013H5.97351V11.8418ZM9.49295 1.90681H5.97351V3.56264H9.49295V1.90681ZM13.0124 5.21847H2.45406V9.35804H4.21378V6.8743H11.2527V9.35804H13.0124V5.21847Z" fill="white"/>
</svg>
