<svg width="24" height="19" viewBox="0 0 24 19" fill="none" xmlns="http://www.w3.org/2000/svg">
<path fill-rule="evenodd" clip-rule="evenodd" d="M18.384 18.7902C18.706 19.0068 19.121 19.061 19.491 18.928C19.8609 18.794 20.1329 18.4938 20.2149 18.13C21.0839 14.2502 23.1919 4.43 23.9829 0.900742C24.0429 0.634741 23.9429 0.358291 23.7229 0.180641C23.5029 0.00299088 23.1979 -0.0483093 22.9259 0.0476408C18.733 1.52204 5.82027 6.1248 0.542386 7.98015C0.207393 8.09795 -0.0106019 8.40385 0.000397845 8.7392C0.0123976 9.0755 0.250392 9.36715 0.593384 9.465C2.96033 10.1376 6.06726 11.0734 6.06726 11.0734C6.06726 11.0734 7.51923 15.2391 8.27621 17.3576C8.37121 17.6236 8.5902 17.8326 8.8792 17.9048C9.16719 17.9761 9.47518 17.901 9.69018 17.7082C10.9061 16.6176 12.7861 14.9313 12.7861 14.9313C12.7861 14.9313 16.358 17.4194 18.384 18.7902ZM7.37423 10.5471L9.05319 15.8082L9.42618 12.4765C9.42618 12.4765 15.913 6.91805 19.611 3.7498C19.719 3.65669 19.7339 3.5009 19.644 3.39164C19.555 3.28239 19.391 3.25674 19.268 3.33084C14.9821 5.931 7.37423 10.5471 7.37423 10.5471Z" fill="#38ACF5"/>
</svg>
