<svg width="20" height="20" viewBox="0 0 20 20" fill="none" xmlns="http://www.w3.org/2000/svg">
<path fill-rule="evenodd" clip-rule="evenodd" d="M13.7523 7.87615C13.7523 11.1215 11.1215 13.7523 7.87615 13.7523C4.63084 13.7523 2 11.1215 2 7.87615C2 4.63084 4.63084 2 7.87615 2C11.1215 2 13.7523 4.63084 13.7523 7.87615ZM12.6936 14.1077C11.3618 15.1387 9.69065 15.7523 7.87615 15.7523C3.52627 15.7523 0 12.226 0 7.87615C0 3.52627 3.52627 0 7.87615 0C12.226 0 15.7523 3.52627 15.7523 7.87615C15.7523 9.69062 15.1387 11.3618 14.1078 12.6935L18.7098 17.2955C19.1003 17.686 19.1003 18.3192 18.7098 18.7097C18.3193 19.1003 17.6861 19.1003 17.2956 18.7097L12.6936 14.1077Z" fill="black"/>
</svg>
