<svg width="91" height="57" viewBox="0 0 91 57" fill="none" xmlns="http://www.w3.org/2000/svg">
<path d="M78.1752 11.4C80.0649 11.4 81.8771 12.1507 83.2133 13.4869C84.5495 14.8231 85.3002 16.6354 85.3002 18.525V41.325C85.3002 43.2147 84.5495 45.027 83.2133 46.3632C81.8771 47.6994 80.0649 48.45 78.1752 48.45H46.8252C44.9355 48.45 43.1233 47.6994 41.7871 46.3632C40.4509 45.027 39.7002 43.2147 39.7002 41.325V18.525C39.7002 16.6354 40.4509 14.8231 41.7871 13.4869C43.1233 12.1507 44.9355 11.4 46.8252 11.4H78.1752ZM82.4502 22.6889L63.2241 34.0034C63.0423 34.1101 62.8392 34.1752 62.6292 34.1939C62.4193 34.2126 62.2078 34.1845 62.01 34.1117L61.7763 34.0034L42.5502 22.6946V41.325C42.5502 42.4588 43.0006 43.5462 43.8023 44.3479C44.604 45.1496 45.6914 45.6 46.8252 45.6H78.1752C79.309 45.6 80.3964 45.1496 81.1981 44.3479C81.9998 43.5462 82.4502 42.4588 82.4502 41.325V22.6889ZM78.1752 14.25H46.8252C45.6914 14.25 44.604 14.7004 43.8023 15.5021C43.0006 16.3039 42.5502 17.3912 42.5502 18.525V19.3857L62.5002 31.122L82.4502 19.38V18.525C82.4502 17.3912 81.9998 16.3039 81.1981 15.5021C80.3964 14.7004 79.309 14.25 78.1752 14.25Z" fill="#38ACF5"/>
<path d="M8 23.5H28.5" stroke="#38ACF5" stroke-width="3" stroke-linecap="round"/>
<path d="M12 31.5H32.5" stroke="#38ACF5" stroke-width="3" stroke-linecap="round"/>
<path d="M8 39.5H28.5" stroke="#38ACF5" stroke-width="3" stroke-linecap="round"/>
</svg>
