<svg width="16" height="17" viewBox="0 0 16 17" fill="none" xmlns="http://www.w3.org/2000/svg">
<path fill-rule="evenodd" clip-rule="evenodd" d="M12.0082 6.4906C11.3321 6.48821 10.6771 6.2554 10.1512 5.8306L6.93319 7.8416C7.03316 8.26917 7.03316 8.71403 6.93319 9.1416L10.1512 11.1526C10.7071 10.7148 11.4 10.4875 12.1072 10.5111C12.8145 10.5346 13.4907 10.8075 14.0163 11.2813C14.5418 11.7552 14.883 12.3996 14.9794 13.1007C15.0758 13.8017 14.9213 14.5143 14.5432 15.1125C14.165 15.7106 13.5876 16.1559 12.913 16.3695C12.2383 16.5831 11.5099 16.5513 10.8564 16.2798C10.2029 16.0083 9.66636 15.5145 9.34171 14.8857C9.01706 14.2569 8.92514 13.5336 9.08219 12.8436L5.86519 10.8306C5.42414 11.1844 4.89206 11.4064 4.3303 11.471C3.76854 11.5355 3.19998 11.44 2.69017 11.1954C2.18035 10.9508 1.75004 10.5671 1.44885 10.0886C1.14766 9.61 0.987854 9.05605 0.987854 8.4906C0.987854 7.92515 1.14766 7.3712 1.44885 6.89264C1.75004 6.41408 2.18035 6.03038 2.69017 5.78579C3.19998 5.5412 3.76854 5.44566 4.3303 5.51021C4.89206 5.57475 5.42414 5.79675 5.86519 6.1506L9.08319 4.1396C8.94876 3.53292 9.00604 2.89946 9.24712 2.32673C9.4882 1.754 9.90117 1.27027 10.429 0.942345C10.9568 0.614422 11.5735 0.458493 12.1937 0.496102C12.814 0.53371 13.4073 0.762996 13.8916 1.15229C14.3759 1.54158 14.7274 2.07167 14.8975 2.66933C15.0677 3.26699 15.048 3.90273 14.8412 4.48873C14.6345 5.07473 14.2509 5.58206 13.7434 5.94066C13.2359 6.29926 12.6296 6.49142 12.0082 6.4906ZM12.0082 14.5526C12.2185 14.5528 12.4242 14.4906 12.5991 14.3739C12.7741 14.2571 12.9105 14.0911 12.9911 13.8969C13.0717 13.7026 13.0928 13.4888 13.0518 13.2825C13.0108 13.0762 12.9096 12.8867 12.7608 12.7379C12.6121 12.5892 12.4226 12.488 12.2163 12.447C12.01 12.406 11.7962 12.4271 11.6019 12.5077C11.4077 12.5883 11.2417 12.7247 11.1249 12.8997C11.0082 13.0746 10.946 13.2803 10.9462 13.4906C10.9462 13.7723 11.0581 14.0424 11.2572 14.2415C11.4564 14.4407 11.7265 14.5526 12.0082 14.5526ZM4.00819 7.4286C3.79819 7.4288 3.59296 7.49125 3.41845 7.60806C3.24394 7.72488 3.10797 7.89081 3.02775 8.08488C2.94752 8.27896 2.92663 8.49246 2.96772 8.6984C3.00881 8.90434 3.11004 9.09347 3.2586 9.2419C3.40716 9.39032 3.59639 9.49137 3.80237 9.53226C4.00835 9.57316 4.22184 9.55207 4.41583 9.47166C4.60983 9.39125 4.77563 9.25514 4.89228 9.08051C5.00893 8.90589 5.07119 8.7006 5.07119 8.4906C5.07093 8.20885 4.95882 7.93873 4.75949 7.73959C4.56017 7.54046 4.28994 7.4286 4.00819 7.4286ZM12.0082 2.4596C11.8043 2.4596 11.6049 2.52007 11.4354 2.63335C11.2659 2.74664 11.1337 2.90766 11.0557 3.09605C10.9776 3.28444 10.9572 3.49175 10.997 3.69174C11.0368 3.89174 11.135 4.07544 11.2792 4.21963C11.4234 4.36382 11.6071 4.46201 11.8071 4.50179C12.007 4.54157 12.2143 4.52116 12.4027 4.44312C12.5911 4.36509 12.7522 4.23294 12.8654 4.06339C12.9787 3.89385 13.0392 3.69451 13.0392 3.4906C13.0392 3.21716 12.9306 2.95492 12.7372 2.76157C12.5439 2.56822 12.2816 2.4596 12.0082 2.4596Z" fill="#92A7C7"/>
</svg>
