<svg width="16" height="16" viewBox="0 0 16 16" fill="none" xmlns="http://www.w3.org/2000/svg">
<path fill-rule="evenodd" clip-rule="evenodd" d="M14 13H12V16H4V13H2C1.46957 13 0.960858 12.7893 0.585785 12.4142C0.210712 12.0391 0 11.5304 0 11V6C0 5.46957 0.210712 4.96086 0.585785 4.58578C0.960858 4.21071 1.46957 4 2 4H4V0H12V4H14C14.5304 4 15.0391 4.21071 15.4142 4.58578C15.7893 4.96086 16 5.46957 16 6V11C16 11.5304 15.7893 12.0391 15.4142 12.4142C15.0391 12.7893 14.5304 13 14 13ZM6 14H10V10H6V14ZM10 2H6V4H10V2ZM14 6H2V11H4V8H12V11H14V6Z" fill="#92A7C7"/>
</svg>
