<svg width="800" height="180" viewBox="0 0 800 180" fill="none" xmlns="http://www.w3.org/2000/svg">
<g clip-path="url(#clip0)">
<g clip-path="url(#clip1)">
<path fill-rule="evenodd" clip-rule="evenodd" d="M137.345 57.7963V66.324C137.345 66.6137 137.493 66.7924 137.785 66.8572C138.468 66.9856 139.3 67.0517 140.275 67.0517C142.585 67.0517 144.281 66.6204 145.355 65.7656C146.428 64.9095 146.966 63.593 146.966 61.816C146.966 58.8456 144.524 57.361 139.64 57.361H137.785C137.493 57.361 137.345 57.5066 137.345 57.7963ZM137.345 43.9457V51.0629C137.345 51.3222 137.493 51.4506 137.785 51.4506H138.958C143.709 51.4506 146.086 50.0467 146.086 47.235C146.086 44.557 144.101 43.218 140.128 43.218C139.185 43.218 138.388 43.2828 137.736 43.4085C137.474 43.4734 137.345 43.652 137.345 43.9457ZM131.926 72.9092C131.145 72.8431 130.492 72.5057 129.975 71.8931C129.454 71.2818 129.192 70.5845 129.192 69.8091V40.4566C129.192 39.6468 129.46 38.9469 129.998 38.3502C130.534 37.7508 131.194 37.42 131.977 37.3565C134.515 37.0972 137.002 36.9688 139.447 36.9688C148.886 36.9688 153.605 39.9882 153.605 46.027C153.605 48.0607 152.946 49.7887 151.627 51.2111C150.308 52.6282 148.545 53.5345 146.328 53.9222C146.298 53.9222 146.282 53.9526 146.282 54.0188C146.282 54.0532 146.312 54.0677 146.378 54.0677C148.95 54.421 150.995 55.3922 152.504 56.9747C154.019 58.5572 154.776 60.4479 154.776 62.6417C154.776 66.2261 153.578 68.9001 151.185 70.6573C148.793 72.4184 145.043 73.2969 139.932 73.2969C137.363 73.2969 134.691 73.1686 131.926 72.9092ZM182.705 55.1329C182.705 47.5433 179.971 43.7512 174.502 43.7512C169.035 43.7512 166.298 47.5433 166.298 55.1329C166.298 62.7211 169.035 66.5185 174.502 66.5185C179.971 66.5185 182.705 62.7211 182.705 55.1329ZM186.707 68.4767C183.713 71.692 179.646 73.2969 174.502 73.2969C169.356 73.2969 165.289 71.692 162.295 68.4767C159.301 65.2668 157.804 60.8158 157.804 55.1329C157.804 49.4487 159.301 45.0029 162.295 41.789C165.289 38.5738 169.356 36.9688 174.502 36.9688C179.646 36.9688 183.713 38.5738 186.707 41.789C189.701 45.0029 191.202 49.4487 191.202 55.1329C191.202 60.8158 189.701 65.2668 186.707 68.4767ZM205.948 65.8371C205.884 65.9019 205.876 65.9747 205.925 66.058C205.972 66.1374 206.044 66.1758 206.144 66.1758H215.86C216.152 66.1758 216.3 66.0461 216.3 65.7921V44.4776C216.3 44.2196 216.152 44.0886 215.86 44.0886H210.293C210.001 44.0886 209.854 44.2342 209.854 44.5226C209.854 50.5945 209.609 54.9384 209.123 57.5555C208.632 60.1701 207.574 62.9301 205.948 65.8371ZM197.255 80.5636C196.508 80.5636 195.856 80.2897 195.304 79.7406C194.752 79.1928 194.472 78.5471 194.472 77.8049V68.3563C194.472 67.7424 194.686 67.225 195.108 66.8082C195.531 66.3888 196.052 66.1758 196.668 66.1758C196.964 66.1758 197.144 66.0964 197.21 65.9376C199.126 63.0307 200.396 60.2031 201.016 57.4576C201.635 54.7134 201.946 50.2571 201.946 44.0886V40.2131C201.946 39.4709 202.214 38.8252 202.751 38.2761C203.287 37.7243 203.93 37.4504 204.678 37.4504H221.668C222.42 37.4504 223.069 37.7243 223.624 38.2761C224.176 38.8252 224.452 39.4709 224.452 40.2131V65.7921C224.452 66.0461 224.582 66.1758 224.843 66.1758H225.967C226.714 66.1758 227.368 66.4523 227.918 67.0028C228.475 67.5505 228.751 68.1962 228.751 68.9385V77.8049C228.751 78.5471 228.475 79.1928 227.918 79.7406C227.368 80.2897 226.714 80.5636 225.967 80.5636H223.867C223.119 80.5636 222.465 80.2897 221.913 79.7406C221.361 79.1928 221.082 78.5471 221.082 77.8049V73.2519C221.082 72.9582 220.951 72.814 220.695 72.814H202.531C202.271 72.814 202.142 72.9582 202.142 73.2519V77.8049C202.142 78.5471 201.866 79.1928 201.308 79.7406C200.756 80.2897 200.105 80.5636 199.357 80.5636H197.255ZM243.347 58.5228C243.317 58.6207 243.339 58.708 243.422 58.7927C243.501 58.8721 243.593 58.9104 243.69 58.9104H250.234C250.332 58.9104 250.418 58.8721 250.502 58.7927C250.582 58.708 250.608 58.6207 250.574 58.5228L247.01 44.6218C247.01 44.5874 246.995 44.5729 246.96 44.5729C246.93 44.5729 246.915 44.5874 246.915 44.6218L243.347 58.5228ZM233.877 72.814C233.19 72.814 232.646 72.5401 232.239 71.9923C231.833 71.4406 231.745 70.8438 231.971 70.1981L241.834 40.0676C242.095 39.2922 242.559 38.6651 243.225 38.1782C243.892 37.6939 244.632 37.4504 245.449 37.4504H248.67C249.517 37.4504 250.28 37.6939 250.967 38.1782C251.648 38.6651 252.105 39.2922 252.332 40.0676L262.148 70.1981C262.373 70.8438 262.285 71.4406 261.88 71.9923C261.469 72.5401 260.925 72.814 260.243 72.814H256.971C256.158 72.814 255.428 72.5626 254.774 72.0651C254.123 71.5636 253.701 70.9232 253.504 70.1505L252.332 65.5486C252.302 65.2893 252.136 65.1609 251.844 65.1609H242.079C241.819 65.1609 241.656 65.2893 241.592 65.5486L240.417 70.1505C240.224 70.9232 239.801 71.5636 239.15 72.0651C238.497 72.5626 237.766 72.814 236.954 72.814H233.877ZM137.345 97.3317V107.841C137.345 108.101 137.493 108.261 137.785 108.326C138.893 108.455 139.772 108.52 140.423 108.52C142.766 108.52 144.58 107.98 145.863 106.899C147.152 105.816 147.794 104.305 147.794 102.369C147.794 98.5252 145.336 96.6053 140.423 96.6053C139.607 96.6053 138.713 96.6847 137.736 96.8448C137.474 96.9097 137.345 97.0737 137.345 97.3317ZM131.977 126.2C131.225 126.2 130.576 125.926 130.02 125.378C129.468 124.828 129.192 124.181 129.192 123.44V93.844C129.192 93.0673 129.454 92.3713 129.975 91.7587C130.492 91.1448 131.145 90.8073 131.926 90.7425C134.691 90.4845 137.363 90.3535 139.932 90.3535C150.349 90.3535 155.558 94.1972 155.558 101.886C155.558 106.051 154.345 109.203 151.919 111.353C149.496 113.503 145.941 114.576 141.251 114.576C140.013 114.576 138.858 114.526 137.785 114.431C137.493 114.431 137.345 114.559 137.345 114.818V123.44C137.345 124.181 137.069 124.828 136.517 125.378C135.964 125.926 135.312 126.2 134.564 126.2H131.977ZM183.241 108.52C183.241 100.929 180.507 97.1372 175.039 97.1372C169.571 97.1372 166.834 100.929 166.834 108.52C166.834 116.108 169.571 119.906 175.039 119.906C180.507 119.906 183.241 116.108 183.241 108.52ZM187.245 121.864C184.249 125.078 180.182 126.684 175.039 126.684C169.894 126.684 165.826 125.078 162.831 121.864C159.837 118.654 158.34 114.203 158.34 108.52C158.34 102.836 159.837 98.3903 162.831 95.175C165.826 91.9598 169.894 90.3535 175.039 90.3535C180.182 90.3535 184.249 91.9598 187.245 95.175C190.239 98.3903 191.739 102.836 191.739 108.52C191.739 114.203 190.239 118.654 187.245 121.864ZM211.952 126.684C206.615 126.684 202.418 125.12 199.357 121.984C196.297 118.855 194.766 114.367 194.766 108.52C194.766 102.771 196.248 98.3043 199.212 95.1248C202.172 91.9439 206.304 90.3535 211.612 90.3535C214.148 90.3535 216.362 90.5335 218.253 90.8867C219.035 91.0164 219.667 91.4041 220.154 92.0524C220.646 92.6941 220.887 93.4205 220.887 94.2316V95.7797C220.887 96.4558 220.611 96.9891 220.058 97.3781C219.506 97.7644 218.904 97.8795 218.253 97.7155C216.428 97.2325 214.541 96.9891 212.589 96.9891C209.661 96.9891 207.371 97.9748 205.729 99.9463C204.085 101.915 203.26 104.773 203.26 108.52C203.26 112.203 204.142 115.058 205.898 117.094C207.658 119.129 210.001 120.145 212.931 120.145C214.882 120.145 216.788 119.906 218.643 119.419C219.292 119.257 219.904 119.374 220.473 119.756C221.043 120.145 221.327 120.676 221.327 121.359V122.81C221.327 123.619 221.074 124.344 220.571 124.992C220.065 125.634 219.422 126.023 218.643 126.151C216.722 126.508 214.491 126.684 211.952 126.684ZM243.494 126.684C238.157 126.684 233.957 125.12 230.898 121.984C227.838 118.855 226.309 114.367 226.309 108.52C226.309 102.771 227.788 98.3043 230.751 95.1248C233.712 91.9439 237.846 90.3535 243.153 90.3535C245.691 90.3535 247.902 90.5335 249.793 90.8867C250.574 91.0164 251.209 91.4041 251.696 92.0524C252.186 92.6941 252.427 93.4205 252.427 94.2316V95.7797C252.427 96.4558 252.151 96.9891 251.599 97.3781C251.047 97.7644 250.445 97.8795 249.793 97.7155C247.969 97.2325 246.083 96.9891 244.13 96.9891C241.2 96.9891 238.912 97.9748 237.271 99.9463C235.627 101.915 234.803 104.773 234.803 108.52C234.803 112.203 235.683 115.058 237.438 117.094C239.2 119.129 241.543 120.145 244.472 120.145C246.423 120.145 248.329 119.906 250.185 119.419C250.832 119.257 251.447 119.374 252.013 119.756C252.586 120.145 252.868 120.676 252.868 121.359V122.81C252.868 123.619 252.615 124.344 252.113 124.992C251.607 125.634 250.964 126.023 250.185 126.151C248.265 126.508 246.031 126.684 243.494 126.684ZM262.829 126.2C262.079 126.2 261.43 125.926 260.876 125.378C260.323 124.828 260.047 124.181 260.047 123.44V93.6005C260.047 92.8582 260.323 92.2099 260.876 91.6634C261.43 91.1117 262.079 90.8378 262.829 90.8378H265.223C265.97 90.8378 266.622 91.1117 267.173 91.6634C267.725 92.2099 268.001 92.8582 268.001 93.6005V112.491C268.001 112.525 268.023 112.541 268.053 112.541C268.088 112.541 268.103 112.525 268.103 112.491L278.356 93.2604C279.203 91.6436 280.552 90.8378 282.407 90.8378H284.8C285.548 90.8378 286.2 91.1117 286.751 91.6634C287.31 92.2099 287.586 92.8582 287.586 93.6005V123.44C287.586 124.181 287.31 124.828 286.751 125.378C286.2 125.926 285.548 126.2 284.8 126.2H282.407C281.659 126.2 281.008 125.926 280.456 125.378C279.901 124.828 279.625 124.181 279.625 123.44V104.548C279.625 104.514 279.609 104.499 279.575 104.499C279.545 104.499 279.529 104.514 279.529 104.548L269.275 123.777C268.428 125.394 267.074 126.2 265.223 126.2H262.829ZM297.792 126.2C297.04 126.2 296.391 125.926 295.836 125.378C295.284 124.828 295.008 124.181 295.008 123.44V93.6005C295.008 92.8582 295.284 92.2099 295.836 91.6634C296.391 91.1117 297.04 90.8378 297.792 90.8378H300.185C300.931 90.8378 301.584 91.1117 302.136 91.6634C302.688 92.2099 302.964 92.8582 302.964 93.6005V112.491C302.964 112.525 302.983 112.541 303.014 112.541C303.048 112.541 303.063 112.525 303.063 112.491L313.317 93.2604C314.164 91.6436 315.514 90.8378 317.37 90.8378H319.763C320.509 90.8378 321.162 91.1117 321.714 91.6634C322.27 92.2099 322.546 92.8582 322.546 93.6005V123.44C322.546 124.181 322.27 124.828 321.714 125.378C321.162 125.926 320.509 126.2 319.763 126.2H317.37C316.622 126.2 315.971 125.926 315.417 125.378C314.86 124.828 314.586 124.181 314.586 123.44V104.548C314.586 104.514 314.57 104.499 314.535 104.499C314.506 104.499 314.49 104.514 314.49 104.548L304.238 123.777C303.391 125.394 302.035 126.2 300.185 126.2H297.792Z" fill="white"/>
<path fill-rule="evenodd" clip-rule="evenodd" d="M91.9259 103.368L90.1068 104.821C86.7874 103.66 83.2745 102.422 79.1989 100.96C67.224 96.6755 55.8787 93.5648 41.7459 94.3838C32.401 94.9263 18.311 102.059 9.50757 106.113C6.60555 107.474 3.93558 108.835 1.33762 110.206C1.09356 108.092 0.92819 105.84 0.857507 103.425L0.782822 101.048C12.3736 99.9767 22.8014 94.7305 32.325 89.8402C42.2914 84.7117 50.348 83.1437 56.5868 82.7786C66.1491 82.2255 76.4356 86.2822 86.1032 89.3771C91.3578 91.0667 95.8309 92.6598 99.9572 94.1748C98.1648 96.866 95.5948 99.8775 91.9259 103.368ZM72.6133 117.593C43.485 136.999 9.79298 149.712 2.33519 116.261C12.2002 112.184 22.8494 109.326 30.5446 108.88C39.4481 108.363 48.2782 108.63 60.1463 112.92C64.7514 114.592 68.8137 116.122 72.6133 117.593ZM0.242693 86.6223C0.0679846 81.4382 -0.0480431 76.1562 0.0199731 70.9418C2.00711 71.6576 4.08628 72.3959 6.44951 73.2837C13.8739 76.0597 20.4462 77.6805 30.4619 77.097C43.0303 76.3693 59.1821 62.5808 65.2729 59.6845C71.1956 56.8437 77.4772 54.9516 84.2214 54.3893C86.7407 56.3422 89.1799 58.2978 91.5072 60.223C97.8674 65.3515 101.446 71.4366 102.986 76.4473C94.2358 72.6486 81.3434 68.3921 71.285 68.9756C60.8278 69.5802 53.0033 73.1302 44.9827 77.2558C37.6143 81.0042 25.2473 87.2534 14.3474 87.8846C9.55292 88.1611 4.7211 87.6345 0.242693 86.6223ZM1.21359 53.3414C1.40164 51.9918 1.61635 50.6646 1.86041 49.364C9.21417 10.2176 47.1552 27.4078 77.2864 49.1973C64.4967 56.325 52.1098 62.5438 44.1425 63.0069C32.7931 63.6658 23.3189 62.004 12.6897 57.7434C8.69271 56.1451 4.83446 54.6817 1.21359 53.3414Z" fill="white"/>
</g>
<path d="M747.049 36.8415L799.86 150.094C800.406 151.269 799.261 152.523 798.038 152.081L632.373 91.7823C631.792 91.5727 631.41 91.023 631.41 90.4109V37.4578C631.41 36.6517 632.064 36 632.87 36H745.727C746.297 36 746.807 36.3273 747.049 36.8415Z" fill="#8AC97E"/>
<path d="M639.645 79.7089C639.645 80.753 639.248 81.086 638.52 81.086H637.436V76.1473H638.52C639.248 76.1473 639.645 76.4788 639.645 77.5215V79.7089ZM638.52 74.0618H635.141V88.6527H637.436V83.1714H638.52C640.81 83.1714 641.935 81.8978 641.935 79.563V77.6674C641.935 75.3341 640.81 74.0618 638.52 74.0618ZM648.005 85.2965C648.005 86.3364 647.546 86.7359 646.817 86.7359C646.09 86.7359 645.628 86.3364 645.628 85.2965V77.4166C645.628 76.3739 646.09 75.9801 646.817 75.9801C647.546 75.9801 648.005 76.3739 648.005 77.4166V85.2965ZM646.817 73.8961C644.567 73.8961 643.339 75.2306 643.339 77.5597V85.1506C643.339 87.4839 644.567 88.8171 646.817 88.8171C649.068 88.8171 650.298 87.4839 650.298 85.1506V77.5597C650.298 75.2306 649.068 73.8961 646.817 73.8961ZM663.691 73.8961C661.439 73.8961 660.27 75.2306 660.27 77.5597V85.1506C660.27 87.4839 661.439 88.8171 663.691 88.8171C665.94 88.8171 667.107 87.4839 667.107 85.1506V83.2125H664.941V85.2965C664.941 86.3364 664.483 86.7104 663.752 86.7104C663.024 86.7104 662.564 86.3364 662.564 85.2965V77.4166C662.564 76.3739 663.024 75.9801 663.752 75.9801C664.483 75.9801 664.941 76.3739 664.941 77.4166V78.9793H667.107V77.5597C667.107 75.2306 665.94 73.8961 663.691 73.8961ZM655.303 73.8961C653.052 73.8961 651.886 75.2306 651.886 77.5597V85.1506C651.886 87.4839 653.052 88.8171 655.303 88.8171C657.551 88.8171 658.721 87.4839 658.721 85.1506V83.2125H656.555V85.2965C656.555 86.3364 656.096 86.7104 655.364 86.7104C654.637 86.7104 654.177 86.3364 654.177 85.2965V77.4166C654.177 76.3739 654.637 75.9801 655.364 75.9801C656.096 75.9801 656.555 76.3739 656.555 77.4166V78.9793H658.721V77.5597C658.721 75.2306 657.551 73.8961 655.303 73.8961ZM671.618 80.0829L670.783 83.2947V74.0618H668.742V88.6527H671.097L673.016 81.9629L673.953 78.3758V88.6527H676.015V74.0618H673.492L671.618 80.0829ZM680.703 80.0829L679.872 83.2947V74.0618H677.827V88.6527H680.178L682.097 81.9629L683.034 78.3758V88.6527H685.1V74.0618H682.576L680.703 80.0829ZM657.067 67.7914C657.067 68.8313 656.608 69.2279 655.878 69.2279C655.151 69.2279 654.692 68.8313 654.692 67.7914V59.9129C654.692 58.8688 655.151 58.4735 655.878 58.4735C656.608 58.4735 657.067 58.8688 657.067 59.9129V67.7914ZM655.878 56.3909C653.631 56.3909 652.396 57.7241 652.396 60.0574V67.644C652.396 69.9774 653.631 71.3105 655.878 71.3105C658.126 71.3105 659.359 69.9774 659.359 67.644V60.0574C659.359 57.7241 658.126 56.3909 655.878 56.3909ZM674.266 56.5567L671.264 62.9122V56.5567H668.971V71.1434H671.264V66.6651L671.971 65.3319L674.201 71.1434H676.557L673.366 63.0581L676.557 56.5567H674.266ZM694.382 71.1434H696.671V56.5567H694.382V71.1434ZM680.127 71.1434H682.422V58.6407H684.82V56.5567H677.731V58.6407H680.127V71.1434ZM661.076 71.1434H667.324V69.0608H663.367V64.7893H666.513V62.7053H663.367V58.6407H667.324V56.5567H661.076V71.1434ZM690.776 67.6837C690.776 68.7278 690.383 69.0608 689.649 69.0608H688.566V64.122H689.649C690.383 64.122 690.776 64.455 690.776 65.4963V67.6837ZM689.649 62.0366H688.566V56.5567H686.275V71.1434H689.649C691.944 71.1434 693.071 69.874 693.071 67.5392V65.6408C693.071 63.3103 691.944 62.0366 689.649 62.0366ZM635.141 71.1434H637.436V58.6407H640.039V71.1434H642.374V56.5567H635.141V71.1434ZM648.707 62.2038C648.707 63.2479 648.313 63.5794 647.577 63.5794H646.496V58.6407H647.577C648.313 58.6407 648.707 58.9722 648.707 60.0164V62.2038ZM647.577 56.5567H644.204V71.1434H646.496V65.6635H647.577C649.873 65.6635 650.999 64.3926 650.999 62.0579V60.1609C650.999 57.8289 649.873 56.5567 647.577 56.5567ZM700.11 50.0752C700.067 51.4281 699.736 51.5769 698.696 51.5769V53.6595H699.044C701.34 53.6595 702.297 52.6168 702.382 49.9505L702.63 41.1342H704.633V53.6382H706.965V39.0502H700.484L700.11 50.0752ZM674.378 42.4078C674.378 41.3665 674.835 40.967 675.566 40.967C676.292 40.967 676.751 41.3665 676.751 42.4078V50.2834C676.751 51.3247 676.292 51.7214 675.566 51.7214C674.835 51.7214 674.378 51.3247 674.378 50.2834V42.4078ZM675.566 53.8054C677.813 53.8054 679.043 52.468 679.043 50.1389V42.5523C679.043 40.2161 677.813 38.883 675.566 38.883C673.314 38.883 672.08 40.2161 672.08 42.5523V50.1389C672.08 52.468 673.314 53.8054 675.566 53.8054ZM687.992 53.6382V39.0502H685.659V45.3008H683.05V39.0502H680.761V53.6382H683.05V47.3862H685.659V53.6382H687.992ZM692.268 49.014L693.373 41.6343L694.48 49.014H692.268ZM691.808 39.0502L689.476 53.6382H691.578L691.978 50.9918H694.791L695.182 53.6382H697.5L695.165 39.0502H691.808ZM722.148 45.3008H719.544V39.0502H717.252V53.6382H719.544V47.3862H722.148V53.6382H724.482V39.0502H722.148V45.3008ZM744.808 41.1342V39.0502H738.554V53.6382H744.808V51.5528H740.849V47.2814H743.994V45.1974H740.849V41.1342H744.808ZM734.423 53.6382H736.712V39.0502H734.423V53.6382ZM730.816 50.18C730.816 51.2227 730.421 51.5528 729.688 51.5528H728.609V46.6155H729.688C730.421 46.6155 730.816 46.9484 730.816 47.9912V50.18ZM729.688 44.5301H728.609V39.0502H726.312V53.6382H729.688C731.985 53.6382 733.111 52.366 733.111 50.0355V48.1357C733.111 45.8037 731.985 44.5301 729.688 44.5301ZM713.336 50.18C713.336 51.2227 712.935 51.5528 712.213 51.5528H711.126V46.6155H712.213C712.935 46.6155 713.336 46.9484 713.336 47.9912V50.18ZM712.213 44.5301H711.126V39.0502H708.831V53.6382H712.213C714.501 53.6382 715.626 52.366 715.626 50.0355V48.1357C715.626 45.8037 714.501 44.5301 712.213 44.5301ZM646.621 49.014L647.725 41.6343L648.828 49.014H646.621ZM646.164 39.0502L643.826 53.6382H645.934L646.331 50.9918H649.143L649.538 53.6382H651.855L649.518 39.0502H646.164ZM659.301 55.5962H661.531V51.5982H660.533V39.0502H658.2V51.5528H655.59V39.0502H653.3V53.6382H659.301V55.5962ZM670.388 53.6382V39.0502H667.862L665.989 45.0713L665.158 48.283V39.0502H663.113V53.6382H665.468L667.386 46.9484L668.32 43.3655V53.6382H670.388ZM640.039 45.3008H637.436V39.0502H635.141V53.6382H637.436V47.3862H640.039V53.6382H642.374V39.0502H640.039V45.3008Z" fill="#FEFEFE"/>
<path d="M381.435 66.3039C381.719 68.5664 382.405 70.1744 383.483 71.135C384.567 72.0955 386.158 72.5758 388.263 72.5758C390.496 72.5758 392.226 71.7583 393.45 70.1262C394.675 68.4942 395.33 66.1396 395.415 63.0596H384.376V58.6791H395.415C395.299 55.5863 394.61 53.2261 393.342 51.5912C392.076 49.9605 390.295 49.1431 388.005 49.1431C386.001 49.1431 384.465 49.646 383.398 50.6476C382.331 51.6493 381.67 53.2813 381.412 55.5438H376C376.344 52.1352 377.561 49.4887 379.662 47.5974C381.759 45.7075 384.54 44.7611 388.005 44.7611C390.567 44.7611 392.824 45.3632 394.773 46.566C396.718 47.7674 398.219 49.4887 399.271 51.7201C400.324 53.9543 400.855 56.5398 400.869 59.4739V62.1161C400.869 65.0799 400.358 67.6824 399.336 69.9222C398.311 72.1621 396.837 73.8848 394.922 75.0876C393.004 76.289 390.784 76.8926 388.263 76.8926C384.711 76.8926 381.861 75.9561 379.716 74.0888C377.568 72.2202 376.336 69.6261 376.023 66.3039H381.435Z" fill="#8AC97E"/>
<path d="M415.344 63.0595H411.651V76.4604H406.239V45.1917H411.651V58.3361H414.637L423.827 45.1917H430.488L419.75 60.1609L431.431 76.4604H424.903L415.344 63.0595Z" fill="#8AC97E"/>
<path d="M453.961 60.0094C453.961 56.5455 453.307 53.8877 451.995 52.0431C450.684 50.1957 448.828 49.272 446.424 49.272C444.074 49.272 442.238 50.1943 440.915 52.0318C439.588 53.8707 438.914 56.4732 438.886 59.838V61.6429C438.886 65.0799 439.553 67.7348 440.892 69.6106C442.232 71.4877 444.089 72.4242 446.467 72.4242C448.871 72.4242 450.72 71.5076 452.017 69.6771C453.311 67.8425 453.961 65.1649 453.961 61.6429V60.0094ZM459.396 61.6429C459.396 64.7058 458.866 67.3934 457.805 69.7069C456.745 72.0204 455.232 73.7956 453.261 75.0338C451.293 76.272 449.028 76.8926 446.467 76.8926C443.932 76.8926 441.671 76.272 439.69 75.0338C437.706 73.7956 436.173 72.0303 435.093 69.7395C434.011 67.4486 433.463 64.8064 433.451 61.8143V60.0533C433.451 57.0045 433.992 54.3127 435.07 51.9779C436.153 49.646 437.677 47.8595 439.645 46.6199C441.614 45.3816 443.873 44.7611 446.424 44.7611C448.97 44.7611 451.228 45.3746 453.199 46.5986C455.167 47.8227 456.688 49.5837 457.762 51.883C458.835 54.1795 459.38 56.8529 459.396 59.9031V61.6429Z" fill="#8AC97E"/>
<path d="M489.397 45.1917V76.4604H483.986V49.5722H474.408L473.848 61.6669C473.634 65.4453 473.172 68.3765 472.462 70.4591C471.754 72.5431 470.728 74.0633 469.381 75.0224C468.035 75.9829 466.232 76.4604 463.968 76.4604H462.594V72.1223L463.453 72.06C464.699 71.9453 465.662 71.5075 466.341 70.7481C467.022 69.9902 467.539 68.8426 467.888 67.3026C468.238 65.7626 468.487 63.4973 468.629 60.5052L469.231 45.1917H489.397Z" fill="#8AC97E"/>
<path d="M515.449 60.0094C515.449 56.5455 514.793 53.8877 513.484 52.0431C512.173 50.1957 510.314 49.272 507.91 49.272C505.563 49.272 503.725 50.1943 502.401 52.0318C501.075 53.8707 500.402 56.4732 500.37 59.838V61.6429C500.37 65.0799 501.041 67.7348 502.379 69.6106C503.717 71.4877 505.574 72.4242 507.951 72.4242C510.36 72.4242 512.209 71.5076 513.504 69.6771C514.8 67.8425 515.449 65.1649 515.449 61.6429V60.0094ZM520.88 61.6429C520.88 64.7058 520.352 67.3934 519.294 69.7069C518.233 72.0204 516.717 73.7956 514.752 75.0338C512.781 76.272 510.516 76.8926 507.951 76.8926C505.418 76.8926 503.16 76.272 501.177 75.0338C499.195 73.7956 497.662 72.0303 496.581 69.7395C495.501 67.4486 494.951 64.8064 494.937 61.8143V60.0533C494.937 57.0045 495.477 54.3127 496.559 51.9779C497.639 49.646 499.163 47.8595 501.134 46.6199C503.103 45.3816 505.362 44.7611 507.91 44.7611C510.458 44.7611 512.716 45.3746 514.685 46.5986C516.656 47.8227 518.174 49.5837 519.25 51.883C520.324 54.1795 520.865 56.8529 520.88 59.9031V61.6429Z" fill="#8AC97E"/>
<path d="M546.287 49.5722H531.857V76.4604H526.445V45.1917H546.287V49.5722Z" fill="#8AC97E"/>
<path d="M569.955 45.1917H575.389V76.4604H569.955V54.1908L556.232 76.4604H550.796V45.1917H556.232V67.484L569.955 45.1917Z" fill="#8AC97E"/>
<path d="M586.342 54.9643C586.342 56.7253 586.836 58.0981 587.825 59.087C588.811 60.0745 590.294 60.5703 592.271 60.5703H597.317V49.5722H592.271C590.266 49.5722 588.776 50.0525 587.802 51.0116C586.829 51.9708 586.342 53.2883 586.342 54.9643ZM597.317 76.4604V64.7794H591.261L585.225 76.4604H579.406L586.386 63.1686C582.748 61.4501 580.93 58.6365 580.93 54.7277C580.93 51.7342 581.915 49.4051 583.884 47.7376C585.852 46.0687 588.597 45.2215 592.119 45.1917H602.752V76.4604H597.317Z" fill="#8AC97E"/>
<path fill-rule="evenodd" clip-rule="evenodd" d="M137.523 57.0896V65.6976C137.523 65.9886 137.672 66.1701 137.964 66.2355C138.649 66.365 139.481 66.4317 140.457 66.4317C142.77 66.4317 144.47 65.9966 145.544 65.133C146.619 64.2694 147.156 62.9413 147.156 61.1473C147.156 58.1494 144.711 56.6518 139.822 56.6518H137.964C137.672 56.6518 137.523 56.7986 137.523 57.0896ZM137.523 43.1118V50.2956C137.523 50.5558 137.672 50.6853 137.964 50.6853H139.14C143.896 50.6853 146.276 49.2691 146.276 46.4314C146.276 43.7284 144.288 42.3776 140.31 42.3776C139.367 42.3776 138.569 42.4417 137.914 42.5698C137.653 42.6352 137.523 42.8154 137.523 43.1118ZM132.098 72.3434C131.315 72.2767 130.661 71.9363 130.143 71.3183C129.621 70.7003 129.36 69.9982 129.36 69.2147V39.5906C129.36 38.7737 129.628 38.0663 130.166 37.4643C130.704 36.8597 131.365 36.526 132.148 36.4619C134.69 36.2003 137.18 36.0708 139.627 36.0708C149.08 36.0708 153.805 39.1181 153.805 45.2114C153.805 47.2643 153.146 49.0088 151.824 50.4437C150.503 51.8746 148.738 52.7903 146.518 53.1813C146.488 53.1813 146.472 53.2107 146.472 53.2775C146.472 53.3122 146.502 53.3282 146.568 53.3282C149.144 53.6832 151.192 54.663 152.702 56.2607C154.22 57.8584 154.977 59.7658 154.977 61.9802C154.977 65.5988 153.778 68.2977 151.382 70.0703C148.986 71.8482 145.232 72.7345 140.114 72.7345C137.542 72.7345 134.866 72.6051 132.098 72.3434ZM182.942 54.4027C182.942 46.7424 180.204 42.9156 174.729 42.9156C169.255 42.9156 166.513 46.7424 166.513 54.4027C166.513 62.0603 169.255 65.8938 174.729 65.8938C180.204 65.8938 182.942 62.0603 182.942 54.4027ZM186.95 67.8706C183.952 71.1141 179.879 72.7345 174.729 72.7345C169.577 72.7345 165.503 71.1141 162.505 67.8706C159.507 64.6298 158.01 60.1382 158.01 54.4027C158.01 48.6658 159.507 44.1783 162.505 40.9347C165.503 37.6912 169.577 36.0708 174.729 36.0708C179.879 36.0708 183.952 37.6912 186.95 40.9347C189.948 44.1783 191.45 48.6658 191.45 54.4027C191.45 60.1382 189.948 64.6298 186.95 67.8706ZM206.216 65.2064C206.151 65.2704 206.143 65.3452 206.194 65.4293C206.239 65.5094 206.311 65.5467 206.413 65.5467H216.141C216.433 65.5467 216.581 65.4173 216.581 65.1597V43.6483C216.581 43.3881 216.433 43.2559 216.141 43.2559H210.565C210.274 43.2559 210.127 43.4027 210.127 43.6951C210.127 49.8217 209.882 54.2065 209.396 56.848C208.903 59.4855 207.844 62.2725 206.216 65.2064ZM197.511 80.0692C196.764 80.0692 196.111 79.7929 195.558 79.2376C195.004 78.685 194.725 78.0336 194.725 77.2848V67.7478C194.725 67.1285 194.94 66.6066 195.361 66.1861C195.784 65.763 196.307 65.5467 196.924 65.5467C197.22 65.5467 197.4 65.4667 197.466 65.3065C199.385 62.374 200.656 59.5202 201.278 56.7492C201.897 53.9795 202.208 49.4813 202.208 43.2559V39.345C202.208 38.5962 202.476 37.9435 203.014 37.3896C203.551 36.833 204.196 36.5567 204.944 36.5567H221.956C222.709 36.5567 223.359 36.833 223.916 37.3896C224.468 37.9435 224.745 38.5962 224.745 39.345V65.1597C224.745 65.4173 224.874 65.5467 225.136 65.5467H226.262C227.008 65.5467 227.662 65.8271 228.215 66.3823C228.772 66.9349 229.048 67.5863 229.048 68.3351V77.2848C229.048 78.0336 228.772 78.685 228.215 79.2376C227.662 79.7929 227.008 80.0692 226.262 80.0692H224.157C223.408 80.0692 222.754 79.7929 222.202 79.2376C221.649 78.685 221.369 78.0336 221.369 77.2848V72.6892C221.369 72.3928 221.239 72.246 220.982 72.246H202.795C202.534 72.246 202.404 72.3928 202.404 72.6892V77.2848C202.404 78.0336 202.128 78.685 201.569 79.2376C201.016 79.7929 200.365 80.0692 199.616 80.0692H197.511ZM243.664 57.8237C243.633 57.9225 243.656 58.0106 243.739 58.096C243.819 58.1761 243.909 58.2148 244.007 58.2148H250.559C250.657 58.2148 250.745 58.1761 250.829 58.096C250.909 58.0106 250.933 57.9225 250.901 57.8237L247.33 43.7938C247.33 43.7591 247.316 43.7445 247.281 43.7445C247.25 43.7445 247.236 43.7591 247.236 43.7938L243.664 57.8237ZM234.181 72.246C233.493 72.246 232.948 71.9697 232.542 71.4171C232.134 70.8605 232.046 70.2585 232.273 69.6072L242.149 39.1982C242.409 38.4147 242.875 37.782 243.542 37.2908C244.208 36.8023 244.95 36.5567 245.767 36.5567H248.994C249.841 36.5567 250.606 36.8023 251.293 37.2908C251.975 37.782 252.433 38.4147 252.66 39.1982L262.49 69.6072C262.714 70.2585 262.627 70.8605 262.221 71.4171C261.809 71.9697 261.264 72.246 260.582 72.246H257.305C256.491 72.246 255.76 71.9937 255.105 71.4919C254.454 70.9846 254.031 70.3386 253.835 69.5591L252.66 64.9141C252.629 64.6524 252.464 64.523 252.172 64.523H242.394C242.133 64.523 241.971 64.6524 241.906 64.9141L240.73 69.5591C240.536 70.3386 240.113 70.9846 239.461 71.4919C238.806 71.9937 238.075 72.246 237.261 72.246H234.181ZM137.523 96.9928V107.599C137.523 107.861 137.672 108.022 137.964 108.088C139.073 108.218 139.954 108.284 140.605 108.284C142.952 108.284 144.769 107.739 146.053 106.649C147.343 105.554 147.985 104.03 147.985 102.076C147.985 98.1968 145.525 96.2587 140.605 96.2587C139.787 96.2587 138.894 96.3388 137.914 96.5003C137.653 96.5657 137.523 96.7312 137.523 96.9928ZM132.148 126.127C131.395 126.127 130.745 125.851 130.189 125.298C129.636 124.742 129.36 124.09 129.36 123.341V93.4717C129.36 92.6882 129.621 91.9847 130.143 91.3681C130.661 90.7487 131.315 90.407 132.098 90.343C134.866 90.0813 137.542 89.9492 140.114 89.9492C150.545 89.9492 155.76 93.8281 155.76 101.588C155.76 105.793 154.546 108.974 152.115 111.143C149.69 113.313 146.131 114.396 141.434 114.396C140.196 114.396 139.038 114.345 137.964 114.249C137.672 114.249 137.523 114.38 137.523 114.64V123.341C137.523 124.09 137.247 124.742 136.694 125.298C136.142 125.851 135.488 126.127 134.739 126.127H132.148ZM183.48 108.284C183.48 100.623 180.742 96.7966 175.267 96.7966C169.792 96.7966 167.051 100.623 167.051 108.284C167.051 115.941 169.792 119.775 175.267 119.775C180.742 119.775 183.48 115.941 183.48 108.284ZM187.488 121.752C184.489 124.995 180.417 126.616 175.267 126.616C170.115 126.616 166.041 124.995 163.043 121.752C160.045 118.511 158.546 114.019 158.546 108.284C158.546 102.547 160.045 98.0593 163.043 94.8158C166.041 91.5696 170.115 89.9492 175.267 89.9492C180.417 89.9492 184.489 91.5696 187.488 94.8158C190.486 98.0593 191.988 102.547 191.988 108.284C191.988 114.019 190.486 118.511 187.488 121.752ZM212.228 126.616C206.884 126.616 202.681 125.038 199.616 121.873C196.553 118.715 195.02 114.185 195.02 108.284C195.02 102.481 196.503 97.9739 199.471 94.7638C202.435 91.5549 206.573 89.9492 211.887 89.9492C214.427 89.9492 216.644 90.1307 218.537 90.4871C219.32 90.6193 219.953 91.009 220.441 91.6631C220.932 92.3118 221.174 93.0446 221.174 93.8628V95.4258C221.174 96.1079 220.898 96.6458 220.344 97.0382C219.791 97.4293 219.188 97.5454 218.537 97.3799C216.709 96.8914 214.82 96.6458 212.866 96.6458C209.933 96.6458 207.639 97.6402 205.998 99.6304C204.35 101.618 203.524 104.502 203.524 108.284C203.524 112 204.408 114.883 206.167 116.937C207.928 118.991 210.274 120.016 213.207 120.016C215.161 120.016 217.07 119.775 218.928 119.284C219.578 119.121 220.192 119.237 220.759 119.624C221.33 120.016 221.615 120.553 221.615 121.24V122.706C221.615 123.523 221.361 124.254 220.858 124.908C220.352 125.556 219.707 125.948 218.928 126.078C217.004 126.438 214.77 126.616 212.228 126.616ZM243.811 126.616C238.466 126.616 234.262 125.038 231.198 121.873C228.135 118.715 226.603 114.185 226.603 108.284C226.603 102.481 228.084 97.9739 231.051 94.7638C234.016 91.5549 238.155 89.9492 243.469 89.9492C246.01 89.9492 248.225 90.1307 250.117 90.4871C250.901 90.6193 251.535 91.009 252.023 91.6631C252.513 92.3118 252.755 93.0446 252.755 93.8628V95.4258C252.755 96.1079 252.479 96.6458 251.926 97.0382C251.373 97.4293 250.771 97.5454 250.117 97.3799C248.291 96.8914 246.403 96.6458 244.447 96.6458C241.513 96.6458 239.223 97.6402 237.58 99.6304C235.933 101.618 235.108 104.502 235.108 108.284C235.108 112 235.99 114.883 237.748 116.937C239.51 118.991 241.856 120.016 244.79 120.016C246.743 120.016 248.652 119.775 250.51 119.284C251.159 119.121 251.774 119.237 252.341 119.624C252.914 120.016 253.198 120.553 253.198 121.24V122.706C253.198 123.523 252.944 124.254 252.441 124.908C251.934 125.556 251.289 125.948 250.51 126.078C248.586 126.438 246.351 126.616 243.811 126.616ZM263.172 126.127C262.419 126.127 261.771 125.851 261.215 125.298C260.661 124.742 260.385 124.09 260.385 123.341V93.2261C260.385 92.4773 260.661 91.8232 261.215 91.2706C261.771 90.714 262.419 90.4377 263.172 90.4377H265.568C266.316 90.4377 266.969 90.714 267.522 91.2706C268.074 91.8232 268.351 92.4773 268.351 93.2261V112.292C268.351 112.327 268.372 112.341 268.401 112.341C268.436 112.341 268.452 112.327 268.452 112.292L278.718 92.883C279.565 91.2519 280.916 90.4377 282.775 90.4377H285.171C285.92 90.4377 286.572 90.714 287.124 91.2706C287.683 91.8232 287.96 92.4773 287.96 93.2261V123.341C287.96 124.09 287.683 124.742 287.124 125.298C286.572 125.851 285.92 126.127 285.171 126.127H282.775C282.027 126.127 281.374 125.851 280.821 125.298C280.265 124.742 279.988 124.09 279.988 123.341V104.275C279.988 104.241 279.974 104.226 279.939 104.226C279.908 104.226 279.894 104.241 279.894 104.275L269.625 123.682C268.778 125.314 267.422 126.127 265.568 126.127H263.172ZM298.179 126.127C297.426 126.127 296.777 125.851 296.221 125.298C295.667 124.742 295.39 124.09 295.39 123.341V93.2261C295.39 92.4773 295.667 91.8232 296.221 91.2706C296.777 90.714 297.426 90.4377 298.179 90.4377H300.575C301.322 90.4377 301.976 90.714 302.529 91.2706C303.081 91.8232 303.358 92.4773 303.358 93.2261V112.292C303.358 112.327 303.378 112.341 303.407 112.341C303.442 112.341 303.458 112.327 303.458 112.292L313.725 92.883C314.573 91.2519 315.925 90.4377 317.783 90.4377H320.179C320.926 90.4377 321.58 90.714 322.133 91.2706C322.689 91.8232 322.966 92.4773 322.966 93.2261V123.341C322.966 124.09 322.689 124.742 322.133 125.298C321.58 125.851 320.926 126.127 320.179 126.127H317.783C317.034 126.127 316.383 125.851 315.827 125.298C315.271 124.742 314.994 124.09 314.994 123.341V104.275C314.994 104.241 314.98 104.226 314.945 104.226C314.914 104.226 314.9 104.241 314.9 104.275L304.634 123.682C303.785 125.314 302.427 126.127 300.575 126.127H298.179Z" fill="#38ACF5"/>
<path fill-rule="evenodd" clip-rule="evenodd" d="M92.0462 103.083L90.2242 104.55C86.8993 103.38 83.3834 102.129 79.3017 100.654C67.3113 96.3295 55.9524 93.1901 41.7997 94.0176C32.4429 94.5636 18.3343 101.763 9.51938 105.856C6.61489 107.228 3.93999 108.601 1.33851 109.986C1.09424 107.851 0.928731 105.58 0.857988 103.141L0.784575 100.744C12.3892 99.6611 22.8311 94.366 32.3668 89.4313C42.347 84.2551 50.413 82.672 56.6611 82.3049C66.2342 81.7457 76.5347 85.8408 86.2158 88.9642C91.4762 90.6687 95.9557 92.2771 100.087 93.8054C98.2916 96.5217 95.7195 99.5623 92.0462 103.083ZM72.7079 117.44C43.5416 137.027 9.80502 149.858 2.33692 116.096C12.2156 111.981 22.8792 109.098 30.5849 108.648C39.4985 108.125 48.3415 108.395 60.225 112.725C64.8353 114.412 68.9037 115.955 72.7079 117.44ZM0.242654 86.1838C0.0677978 80.9515 -0.0483281 75.6204 0.0197457 70.3573C2.0099 71.0808 4.09083 71.8256 6.45872 72.7212C13.8921 75.5229 20.4726 77.158 30.5008 76.5694C43.0864 75.8353 59.2586 61.9202 65.3586 58.9957C71.2877 56.1299 77.5771 54.2198 84.3298 53.6512C86.8539 55.6227 89.2952 57.5968 91.627 59.5389C97.9939 64.7165 101.578 70.8579 103.119 75.914C94.358 72.0805 81.448 67.7852 71.3771 68.3738C60.9071 68.9838 53.0719 72.5664 45.0419 76.7296C37.6632 80.5137 25.2805 86.8205 14.366 87.4572C9.56476 87.7375 4.72751 87.2049 0.242654 86.1838ZM1.21437 52.5941C1.40391 51.2326 1.61881 49.8925 1.86308 48.5791C9.22572 9.07223 47.2162 26.4204 77.3863 48.4122C64.5804 55.6053 52.1776 61.8815 44.1996 62.3486C32.8353 63.0134 23.349 61.3369 12.7055 57.0362C8.70382 55.4238 4.83964 53.9475 1.21437 52.5941Z" fill="#38ACF5"/>
</g>
<defs>
<clipPath id="clip0">
<rect width="800" height="180" fill="white"/>
</clipPath>
<clipPath id="clip1">
<rect width="322.546" height="112.467" fill="white" transform="translate(0 26)"/>
</clipPath>
</defs>
</svg>
