<svg width="1440" height="69" viewBox="0 0 1440 69" fill="none" xmlns="http://www.w3.org/2000/svg">
<path fill-rule="evenodd" clip-rule="evenodd" d="M1445 4.16614C1408.57 28.1133 1373.37 26.7246 1339.39 0C1300.81 28.1895 1263.62 28.1895 1227.77 0C1189.2 28.1895 1152.01 28.1895 1116.16 0C1077.58 28.1895 1040.39 28.1895 1004.54 0C965.965 28.1895 928.775 28.1895 892.924 0C854.35 28.1895 817.16 28.1895 781.309 0C742.734 28.1895 705.544 28.1895 669.693 0V26H669.693V0C631.118 28.1895 593.928 28.1895 558.077 0C519.503 28.1895 482.313 28.1895 446.462 0C407.888 28.1895 370.697 28.1895 334.846 0C296.272 28.1895 259.082 28.1895 223.231 0C184.657 28.1895 147.466 28.1895 111.615 0C73.0412 28.1895 35.8509 28.1895 0 0V26V27.1565V218H1445V109V31.3235V4.16614Z" fill="white"/>
</svg>
