<svg width="234" height="86" viewBox="0 0 234 86" fill="none" xmlns="http://www.w3.org/2000/svg">
<path fill-rule="evenodd" clip-rule="evenodd" d="M66.6901 59.3239L65.3704 60.438C62.9622 59.5478 60.4137 58.5986 57.4569 57.4775C48.7694 54.1923 40.5386 51.8071 30.2856 52.435C23.5061 52.851 13.2841 58.3202 6.89736 61.4287C4.79201 62.4723 2.855 63.5159 0.970238 64.5671C0.793177 62.9462 0.673205 61.2194 0.621926 59.3676L0.567743 57.545C8.9766 56.7235 16.5417 52.7009 23.4509 48.9511C30.6813 45.0187 36.5262 43.8164 41.0523 43.5365C47.9896 43.1124 55.4522 46.2229 62.4659 48.596C66.278 49.8916 69.5231 51.1131 72.5166 52.2748C71.2163 54.3383 69.3518 56.6475 66.6901 59.3239ZM52.6792 70.2313C31.5473 85.1114 7.10442 94.8594 1.69395 69.21C8.85081 66.0838 16.5766 63.8924 22.1593 63.5504C28.6186 63.154 35.0246 63.3587 43.6347 66.6482C46.9756 67.9302 49.9227 69.1034 52.6792 70.2313ZM0.175891 46.4837C0.0491443 42.5087 -0.0350313 38.4586 0.014313 34.4603C1.45594 35.0091 2.96433 35.5752 4.6788 36.256C10.065 38.3846 14.8331 39.6274 22.0993 39.1799C31.2174 38.622 42.9352 28.0493 47.3539 25.8284C51.6507 23.6502 56.2079 22.1994 61.1006 21.7682C62.9283 23.2656 64.6979 24.7652 66.3863 26.2414C71.0005 30.1738 73.5967 34.8397 74.714 38.6818C68.3659 35.769 59.0127 32.5052 51.7156 32.9526C44.1291 33.4162 38.4526 36.1383 32.6338 39.3017C27.2882 42.1759 18.3162 46.9676 10.4086 47.4516C6.93026 47.6636 3.42488 47.2598 0.175891 46.4837ZM0.880256 20.9647C1.01668 19.9299 1.17245 18.9122 1.34951 17.9149C6.68451 -12.1016 34.2099 1.07943 56.0695 17.7871C46.7908 23.2525 37.8044 28.0209 32.0243 28.376C23.7905 28.8812 16.9172 27.607 9.20593 24.3401C6.3062 23.1145 3.50712 21.9924 0.880256 20.9647Z" fill="#38ACF5"/>
<path fill-rule="evenodd" clip-rule="evenodd" d="M99.6394 24.3802V30.919C99.6394 31.1412 99.7468 31.2782 99.9586 31.3279C100.454 31.4263 101.058 31.477 101.765 31.477C103.441 31.477 104.671 31.1463 105.451 30.4909C106.229 29.8344 106.619 28.825 106.619 27.4624C106.619 25.1848 104.848 24.0464 101.304 24.0464H99.9586C99.7468 24.0464 99.6394 24.1581 99.6394 24.3802ZM99.6394 13.7599V19.2172C99.6394 19.416 99.7468 19.5145 99.9586 19.5145H100.81C104.256 19.5145 105.981 18.438 105.981 16.282C105.981 14.2286 104.541 13.2019 101.658 13.2019C100.974 13.2019 100.396 13.2516 99.9231 13.348C99.733 13.3977 99.6394 13.5347 99.6394 13.7599ZM95.7081 35.9684C95.1415 35.9177 94.6677 35.659 94.2927 35.1893C93.9147 34.7206 93.7246 34.1859 93.7246 33.5913V11.0845C93.7246 10.4636 93.919 9.92692 94.3093 9.46938C94.6982 9.00978 95.177 8.75613 95.7451 8.70743C97.5863 8.50861 99.3906 8.41016 101.164 8.41016C108.012 8.41016 111.436 10.7254 111.436 15.3558C111.436 16.9152 110.958 18.2402 110.001 19.3308C109.044 20.4174 107.765 21.1123 106.156 21.4096C106.135 21.4096 106.123 21.4329 106.123 21.4837C106.123 21.5101 106.145 21.5212 106.193 21.5212C108.059 21.7921 109.542 22.5368 110.637 23.7502C111.736 24.9636 112.285 26.4134 112.285 28.0955C112.285 30.844 111.416 32.8943 109.68 34.2417C107.945 35.5921 105.224 36.2657 101.516 36.2657C99.6525 36.2657 97.714 36.1673 95.7081 35.9684ZM132.547 22.338C132.547 16.5184 130.564 13.6107 126.596 13.6107C122.63 13.6107 120.644 16.5184 120.644 22.338C120.644 28.1564 122.63 31.0682 126.596 31.0682C130.564 31.0682 132.547 28.1564 132.547 22.338ZM135.451 32.5697C133.278 35.0351 130.328 36.2657 126.596 36.2657C122.863 36.2657 119.912 35.0351 117.74 32.5697C115.568 30.1084 114.482 26.6955 114.482 22.338C114.482 17.9795 115.568 14.5705 117.74 12.1062C119.912 9.64083 122.863 8.41016 126.596 8.41016C130.328 8.41016 133.278 9.64083 135.451 12.1062C137.623 14.5705 138.712 17.9795 138.712 22.338C138.712 26.6955 137.623 30.1084 135.451 32.5697ZM149.409 30.5457C149.363 30.5954 149.357 30.6512 149.393 30.7151C149.427 30.776 149.479 30.8054 149.552 30.8054H156.6C156.812 30.8054 156.92 30.7059 156.92 30.5112V14.1677C156.92 13.9699 156.812 13.8695 156.6 13.8695H152.562C152.35 13.8695 152.243 13.9811 152.243 14.2022C152.243 18.858 152.065 22.1888 151.713 24.1956C151.357 26.2004 150.589 28.3167 149.409 30.5457ZM143.103 41.8376C142.561 41.8376 142.088 41.6276 141.687 41.2066C141.287 40.7865 141.084 40.2914 141.084 39.7223V32.4774C141.084 32.0066 141.239 31.6099 141.545 31.2903C141.852 30.9687 142.23 30.8054 142.677 30.8054C142.892 30.8054 143.022 30.7445 143.07 30.6227C144.46 28.3938 145.382 26.2257 145.831 24.1205C146.28 22.0163 146.506 18.5993 146.506 13.8695V10.8978C146.506 10.3287 146.701 9.8336 147.09 9.41256C147.479 8.98946 147.945 8.77944 148.488 8.77944H160.814C161.36 8.77944 161.83 8.98946 162.233 9.41256C162.633 9.8336 162.834 10.3287 162.834 10.8978V30.5112C162.834 30.7059 162.928 30.8054 163.117 30.8054H163.933C164.475 30.8054 164.949 31.0174 165.348 31.4395C165.752 31.8595 165.953 32.3546 165.953 32.9238V39.7223C165.953 40.2914 165.752 40.7865 165.348 41.2066C164.949 41.6276 164.475 41.8376 163.933 41.8376H162.409C161.867 41.8376 161.392 41.6276 160.992 41.2066C160.591 40.7865 160.389 40.2914 160.389 39.7223V36.2312C160.389 36.006 160.294 35.8954 160.108 35.8954H146.93C146.742 35.8954 146.648 36.006 146.648 36.2312V39.7223C146.648 40.2914 146.448 40.7865 146.043 41.2066C145.643 41.6276 145.17 41.8376 144.628 41.8376H143.103ZM176.542 24.9373C176.52 25.0123 176.536 25.0793 176.596 25.1442C176.653 25.2051 176.72 25.2345 176.79 25.2345H181.538C181.609 25.2345 181.671 25.2051 181.732 25.1442C181.79 25.0793 181.809 25.0123 181.785 24.9373L179.199 14.2783C179.199 14.2519 179.188 14.2408 179.163 14.2408C179.141 14.2408 179.13 14.2519 179.13 14.2783L176.542 24.9373ZM169.671 35.8954C169.173 35.8954 168.778 35.6854 168.483 35.2654C168.188 34.8423 168.125 34.3847 168.289 33.8896L175.444 10.7862C175.633 10.1917 175.97 9.71084 176.453 9.3375C176.937 8.96615 177.474 8.77944 178.067 8.77944H180.403C181.018 8.77944 181.571 8.96615 182.07 9.3375C182.564 9.71084 182.895 10.1917 183.06 10.7862L190.181 33.8896C190.345 34.3847 190.281 34.8423 189.987 35.2654C189.689 35.6854 189.294 35.8954 188.799 35.8954H186.426C185.836 35.8954 185.306 35.7026 184.832 35.3212C184.359 34.9366 184.053 34.4456 183.91 33.8531L183.06 30.3245C183.038 30.1256 182.918 30.0272 182.706 30.0272H175.622C175.433 30.0272 175.315 30.1256 175.268 30.3245L174.416 33.8531C174.276 34.4456 173.969 34.9366 173.497 35.3212C173.023 35.7026 172.493 35.8954 171.904 35.8954H169.671ZM99.6394 54.695V62.7533C99.6394 62.9527 99.7468 63.0753 99.9586 63.1252C100.762 63.2241 101.4 63.2739 101.872 63.2739C103.572 63.2739 104.888 62.8599 105.819 62.031C106.754 61.2006 107.22 60.042 107.22 58.5575C107.22 55.6102 105.437 54.138 101.872 54.138C101.28 54.138 100.632 54.1989 99.9231 54.3217C99.733 54.3714 99.6394 54.4972 99.6394 54.695ZM95.7451 76.8305C95.1995 76.8305 94.7287 76.6204 94.3253 76.2002C93.9248 75.7785 93.7246 75.2824 93.7246 74.7142V52.0207C93.7246 51.4252 93.9147 50.8915 94.2927 50.4218C94.6677 49.951 95.1415 49.6922 95.7081 49.6426C97.714 49.4447 99.6525 49.3443 101.516 49.3443C109.074 49.3443 112.853 52.2915 112.853 58.1871C112.853 61.3808 111.973 63.7976 110.213 65.4462C108.455 67.0948 105.876 67.9175 102.473 67.9175C101.575 67.9175 100.737 67.8792 99.9586 67.8064C99.7468 67.8064 99.6394 67.9045 99.6394 68.1031V74.7142C99.6394 75.2824 99.4392 75.7785 99.0387 76.2002C98.6375 76.6204 98.1645 76.8305 97.6219 76.8305H95.7451ZM132.936 63.2739C132.936 57.4533 130.953 54.5459 126.986 54.5459C123.019 54.5459 121.033 57.4533 121.033 63.2739C121.033 69.0922 123.019 72.0044 126.986 72.0044C130.953 72.0044 132.936 69.0922 132.936 63.2739ZM135.841 73.5058C133.667 75.9702 130.717 77.2017 126.986 77.2017C123.253 77.2017 120.302 75.9702 118.129 73.5058C115.957 71.0444 114.871 67.6315 114.871 63.2739C114.871 58.9156 115.957 55.5067 118.129 53.0413C120.302 50.576 123.253 49.3443 126.986 49.3443C130.717 49.3443 133.667 50.576 135.841 53.0413C138.013 55.5067 139.101 58.9156 139.101 63.2739C139.101 67.6315 138.013 71.0444 135.841 73.5058ZM153.765 77.2017C149.893 77.2017 146.848 76.0024 144.628 73.5978C142.408 71.1986 141.297 67.7573 141.297 63.2739C141.297 58.8657 142.372 55.4408 144.523 53.0028C146.67 50.5638 149.668 49.3443 153.519 49.3443C155.358 49.3443 156.965 49.4823 158.336 49.7531C158.904 49.8526 159.362 50.1499 159.716 50.647C160.073 51.139 160.247 51.696 160.247 52.3179V53.505C160.247 54.0234 160.047 54.4323 159.646 54.7306C159.245 55.0268 158.809 55.115 158.336 54.9893C157.012 54.6189 155.643 54.4323 154.227 54.4323C152.103 54.4323 150.442 55.1881 149.251 56.6998C148.058 58.2094 147.459 60.4008 147.459 63.2739C147.459 66.098 148.099 68.2871 149.373 69.8483C150.65 71.4087 152.35 72.1877 154.475 72.1877C155.891 72.1877 157.274 72.0044 158.619 71.631C159.09 71.5068 159.534 71.5965 159.947 71.8894C160.361 72.1877 160.567 72.5949 160.567 73.1186V74.2312C160.567 74.8515 160.383 75.4074 160.018 75.9043C159.651 76.3965 159.185 76.6948 158.619 76.793C157.226 77.0667 155.607 77.2017 153.765 77.2017ZM176.648 77.2017C172.776 77.2017 169.729 76.0024 167.51 73.5978C165.29 71.1986 164.181 67.7573 164.181 63.2739C164.181 58.8657 165.254 55.4408 167.403 53.0028C169.552 50.5638 172.551 49.3443 176.401 49.3443C178.242 49.3443 179.846 49.4823 181.218 49.7531C181.785 49.8526 182.245 50.1499 182.599 50.647C182.954 51.139 183.129 51.696 183.129 52.3179V53.505C183.129 54.0234 182.929 54.4323 182.528 54.7306C182.128 55.0268 181.691 55.115 181.218 54.9893C179.895 54.6189 178.527 54.4323 177.11 54.4323C174.984 54.4323 173.324 55.1881 172.134 56.6998C170.941 58.2094 170.343 60.4008 170.343 63.2739C170.343 66.098 170.982 68.2871 172.255 69.8483C173.533 71.4087 175.233 72.1877 177.358 72.1877C178.773 72.1877 180.156 72.0044 181.502 71.631C181.972 71.5068 182.418 71.5965 182.829 71.8894C183.244 72.1877 183.449 72.5949 183.449 73.1186V74.2312C183.449 74.8515 183.265 75.4074 182.901 75.9043C182.534 76.3965 182.068 76.6948 181.502 76.793C180.11 77.0667 178.489 77.2017 176.648 77.2017ZM190.675 76.8305C190.131 76.8305 189.66 76.6204 189.259 76.2002C188.857 75.7785 188.657 75.2824 188.657 74.7142V51.834C188.657 51.2648 188.857 50.7677 189.259 50.3487C189.66 49.9257 190.131 49.7156 190.675 49.7156H192.412C192.954 49.7156 193.427 49.9257 193.827 50.3487C194.227 50.7677 194.428 51.2648 194.428 51.834V66.3188C194.428 66.3449 194.444 66.3571 194.465 66.3571C194.491 66.3571 194.502 66.3449 194.502 66.3188L201.94 51.5732C202.554 50.3335 203.533 49.7156 204.879 49.7156H206.615C207.158 49.7156 207.631 49.9257 208.03 50.3487C208.436 50.7677 208.636 51.2648 208.636 51.834V74.7142C208.636 75.2824 208.436 75.7785 208.03 76.2002C207.631 76.6204 207.158 76.8305 206.615 76.8305H204.879C204.336 76.8305 203.864 76.6204 203.463 76.2002C203.061 75.7785 202.861 75.2824 202.861 74.7142V60.2283C202.861 60.2022 202.849 60.1907 202.824 60.1907C202.802 60.1907 202.791 60.2022 202.791 60.2283L195.352 74.9726C194.737 76.2125 193.755 76.8305 192.412 76.8305H190.675ZM216.04 76.8305C215.495 76.8305 215.024 76.6204 214.621 76.2002C214.221 75.7785 214.021 75.2824 214.021 74.7142V51.834C214.021 51.2648 214.221 50.7677 214.621 50.3487C215.024 49.9257 215.495 49.7156 216.04 49.7156H217.776C218.318 49.7156 218.791 49.9257 219.192 50.3487C219.592 50.7677 219.792 51.2648 219.792 51.834V66.3188C219.792 66.3449 219.806 66.3571 219.829 66.3571C219.853 66.3571 219.864 66.3449 219.864 66.3188L227.303 51.5732C227.918 50.3335 228.897 49.7156 230.244 49.7156H231.98C232.521 49.7156 232.995 49.9257 233.395 50.3487C233.799 50.7677 233.999 51.2648 233.999 51.834V74.7142C233.999 75.2824 233.799 75.7785 233.395 76.2002C232.995 76.6204 232.521 76.8305 231.98 76.8305H230.244C229.701 76.8305 229.229 76.6204 228.827 76.2002C228.423 75.7785 228.224 75.2824 228.224 74.7142V60.2283C228.224 60.2022 228.212 60.1907 228.187 60.1907C228.166 60.1907 228.154 60.2022 228.154 60.2283L220.717 74.9726C220.102 76.2125 219.118 76.8305 217.776 76.8305H216.04Z" fill="#38ACF5"/>
</svg>
