<?xml version="1.0" encoding="utf-8"?>
<!-- Generator: Adobe Illustrator 23.1.0, SVG Export Plug-In . SVG Version: 6.00 Build 0)  -->
<svg version="1.1" id="Слой_1" xmlns="http://www.w3.org/2000/svg" xmlns:xlink="http://www.w3.org/1999/xlink" x="0px" y="0px"
	 viewBox="0 0 1440 35" style="enable-background:new 0 0 1440 35;" xml:space="preserve">
<style type="text/css">
	.st0{fill-rule:evenodd;clip-rule:evenodd;fill:#154CBC;}
</style>
<path class="st0" d="M-4,0v23.7v1.9v370h2678V23.7h-0.3V0c-38.6,26.7-75.8,26.7-111.6,0c-38.6,26.7-75.8,26.7-111.6,0
	c-38.6,26.7-75.8,26.7-111.6,0c-38.6,26.7-75.8,26.7-111.6,0c-38.6,26.7-75.8,26.7-111.6,0c-38.6,26.7-75.8,26.7-111.6,0
	c-38.5,26.5-75.7,26.5-111.5,0c-38.5,26.5-75.7,26.5-111.5,0c-38.5,26.5-75.7,26.5-111.5,0c-38.5,26.5-75.7,26.5-111.5,0
	c-38.5,26.5-75.7,26.5-111.5,0c-38.5,26.5-75.7,26.5-111.5,0c-38.6,26.5-75.8,26.5-111.7,0c-38.6,26.5-75.8,26.5-111.7,0
	c-38.6,26.5-75.8,26.5-111.7,0c-38.6,26.5-75.8,26.5-111.7,0c-38.6,26.5-75.8,26.5-111.7,0C738.1,26.5,700.9,26.5,665,0
	c-38.5,26.5-75.7,26.5-111.5,0C515,26.5,477.8,26.5,442,0c-38.5,26.5-75.7,26.5-111.5,0C292,26.5,254.8,26.5,219,0
	c-38.5,26.5-75.7,26.5-111.5,0C69,26.5,31.8,26.5-4,0z"/>
</svg>
