<?xml version="1.0" encoding="utf-8"?>
<!-- Generator: Adobe Illustrator 23.1.0, SVG Export Plug-In . SVG Version: 6.00 Build 0)  -->
<svg version="1.1" id="Слой_1" xmlns="http://www.w3.org/2000/svg" xmlns:xlink="http://www.w3.org/1999/xlink" x="0px" y="0px"
	 viewBox="0 0 1440 35" style="enable-background:new 0 0 1440 35;" xml:space="preserve">
<style type="text/css">
	.st0{fill-rule:evenodd;clip-rule:evenodd;fill:#009BFF;}
</style>
<path class="st0" d="M-116,0V25v0.8v180.7h2119.5V25.7V25V0c-38.1,26.4-74.9,26.7-110.4,0.9V0c-0.2,0.1-0.4,0.3-0.6,0.4
	c-0.2-0.1-0.4-0.3-0.6-0.4c-19.1,13.2-37.8,19.9-56.2,20c-18.4-0.1-36.5-6.8-54.2-20c-0.2,0.1-0.4,0.3-0.6,0.4
	c-0.2-0.1-0.4-0.3-0.6-0.4c-19.1,13.2-37.8,19.9-56.2,20c-18.4-0.1-36.4-6.8-54.2-20c-0.2,0.1-0.4,0.3-0.6,0.4
	c-0.2-0.1-0.4-0.3-0.6-0.4c-19.1,13.2-37.8,19.9-56.2,20c-18.4-0.1-36.5-6.8-54.2-20c-0.2,0.1-0.4,0.3-0.6,0.4
	c-0.2-0.1-0.4-0.3-0.6-0.4c-19.1,13.2-37.8,19.9-56.2,20c-18.4-0.1-36.5-6.8-54.2-20c-0.2,0.1-0.4,0.3-0.6,0.4
	c-0.2-0.1-0.4-0.3-0.6-0.4c-19.1,13.2-37.8,19.9-56.2,20c-18.4-0.1-36.4-6.8-54.2-20c-0.2,0.1-0.4,0.3-0.6,0.4
	c-0.2-0.1-0.4-0.3-0.6-0.4v0.8c-38.1,25.8-74.9,25.6-110.4-0.8c-38.6,26.7-75.8,26.7-111.6,0c-38.6,26.7-75.8,26.7-111.6,0
	c-38.6,26.7-75.8,26.7-111.6,0C850,26.7,812.8,26.7,776.9,0c-38.6,26.7-75.8,26.7-111.6,0c-38.6,26.7-75.8,26.7-111.6,0
	c-38.6,26.7-75.8,26.7-111.6,0c-38.6,26.7-75.8,26.7-111.6,0c-38.6,26.7-75.8,26.7-111.6,0c-38.6,26.7-75.8,26.7-111.6,0
	C68.7,26.7,31.5,26.7-4.4,0C-43,26.7-80.1,26.7-116,0z"/>
</svg>
