<?xml version="1.0" encoding="utf-8"?>
<!-- Generator: Adobe Illustrator 23.1.0, SVG Export Plug-In . SVG Version: 6.00 Build 0)  -->
<svg version="1.1" id="Слой_1" xmlns="http://www.w3.org/2000/svg" xmlns:xlink="http://www.w3.org/1999/xlink" x="0px" y="0px"
	 viewBox="0 0 1440 35" style="enable-background:new 0 0 1440 35;" xml:space="preserve">
<style type="text/css">
	.st0{fill-rule:evenodd;clip-rule:evenodd;fill:url(#SVGID_1_);}
</style>
<linearGradient id="SVGID_1_" gradientUnits="userSpaceOnUse" x1="1111.665" y1="208" x2="1111.665" y2="1.6416" gradientTransform="matrix(1 0 0 -1 0 208)">
	<stop  offset="0" style="stop-color:#1663D8"/>
	<stop  offset="1" style="stop-color:#1D70EE"/>
</linearGradient>
<path class="st0" d="M-4,0v24.9v0.8v180.7h2193.1V43.5c12.6-3,25.4-8.9,38.3-17.8V0c-38.6,26.7-75.8,26.7-111.6,0
	c-38.2,26.4-75.1,26.7-110.6,0.7V0c-0.2,0.1-0.3,0.2-0.5,0.4c-0.2-0.1-0.3-0.2-0.5-0.4c-19.1,13.2-37.9,19.9-56.3,20
	c-18.4-0.1-36.5-6.8-54.3-20c-0.2,0.1-0.3,0.2-0.5,0.4c-0.1-0.1-0.3-0.2-0.5-0.4c-19.1,13.2-37.9,19.9-56.3,20
	c-18.4-0.1-36.5-6.8-54.3-20c-0.2,0.1-0.3,0.2-0.5,0.4c-0.2-0.1-0.3-0.2-0.5-0.4c-19.1,13.2-37.9,19.9-56.3,20
	c-18.4-0.1-36.5-6.8-54.3-20c-0.2,0.1-0.3,0.2-0.5,0.4c-0.2-0.1-0.3-0.2-0.5-0.4c-19.1,13.2-37.9,19.9-56.3,20
	c-18.4-0.1-36.5-6.8-54.3-20c-0.2,0.1-0.3,0.2-0.5,0.4c-0.2-0.1-0.3-0.2-0.5-0.4v0.7c-38.2,26-75.1,25.8-110.6-0.7
	c-38.6,26.7-75.8,26.7-111.6,0c-38.6,26.7-75.8,26.7-111.6,0c-38.6,26.7-75.8,26.7-111.6,0c-38.6,26.7-75.8,26.7-111.6,0
	C962,26.7,924.8,26.7,888.9,0c-38.6,26.7-75.8,26.7-111.6,0c-38.6,26.7-75.8,26.7-111.6,0c-38.6,26.7-75.8,26.7-111.6,0
	c-38.6,26.7-75.8,26.7-111.6,0c-38.6,26.7-75.8,26.7-111.6,0c-38.6,26.7-75.8,26.7-111.6,0c-38.6,26.7-75.8,26.7-111.6,0
	C69,26.7,31.9,26.7-4,0z"/>
</svg>
