<svg width="233" height="70" viewBox="0 0 233 70" fill="none" xmlns="http://www.w3.org/2000/svg">
<path fill-rule="evenodd" clip-rule="evenodd" d="M46.84 11.4609V14.5347C46.84 14.6391 46.8905 14.7035 46.9901 14.7269C47.223 14.7732 47.5068 14.797 47.8393 14.797C48.6271 14.797 49.2055 14.6415 49.5717 14.3334C49.9377 14.0249 50.1212 13.5503 50.1212 12.9098C50.1212 11.8391 49.2883 11.304 47.6227 11.304H46.9901C46.8905 11.304 46.84 11.3565 46.84 11.4609ZM46.84 6.46844V9.03384C46.84 9.1273 46.8905 9.17358 46.9901 9.17358H47.3901C49.0104 9.17358 49.821 8.66755 49.821 7.65407C49.821 6.68878 49.1441 6.20614 47.7892 6.20614C47.4676 6.20614 47.1957 6.2295 46.9734 6.27481C46.884 6.2982 46.84 6.36258 46.84 6.46844ZM44.992 16.9083C44.7256 16.8845 44.5029 16.7629 44.3266 16.5421C44.1489 16.3217 44.0596 16.0704 44.0596 15.7909V5.21079C44.0596 4.9189 44.151 4.66662 44.3344 4.45154C44.5172 4.23549 44.7423 4.11625 45.0094 4.09336C45.8749 3.99989 46.7231 3.95361 47.5569 3.95361C50.776 3.95361 52.3853 5.04196 52.3853 7.21865C52.3853 7.95169 52.1606 8.57455 51.7107 9.08726C51.2609 9.59805 50.6597 9.92473 49.9036 10.0645C49.8933 10.0645 49.8879 10.0754 49.8879 10.0993C49.8879 10.1117 49.8981 10.1169 49.9206 10.1169C50.7978 10.2443 51.4952 10.5943 52.0098 11.1647C52.5265 11.7352 52.7847 12.4167 52.7847 13.2074C52.7847 14.4994 52.3761 15.4633 51.56 16.0966C50.7442 16.7314 49.4653 17.0481 47.7223 17.0481C46.8462 17.0481 45.9349 17.0018 44.992 16.9083ZM62.3095 10.5009C62.3095 7.7652 61.3771 6.39833 59.512 6.39833C57.6475 6.39833 56.7141 7.7652 56.7141 10.5009C56.7141 13.236 57.6475 14.6048 59.512 14.6048C61.3771 14.6048 62.3095 13.236 62.3095 10.5009ZM63.6743 15.3106C62.6532 16.4696 61.2662 17.0481 59.512 17.0481C57.757 17.0481 56.37 16.4696 55.3489 15.3106C54.3278 14.1536 53.8173 12.5493 53.8173 10.5009C53.8173 8.452 54.3278 6.84951 55.3489 5.69106C56.37 4.53214 57.757 3.95361 59.512 3.95361C61.2662 3.95361 62.6532 4.53214 63.6743 5.69106C64.6954 6.84951 65.2073 8.452 65.2073 10.5009C65.2073 12.5493 64.6954 14.1536 63.6743 15.3106ZM70.2362 14.3592C70.2144 14.3826 70.2116 14.4088 70.2284 14.4388C70.2444 14.4674 70.2689 14.4813 70.303 14.4813H73.6166C73.7161 14.4813 73.7666 14.4345 73.7666 14.343V6.66016C73.7666 6.56717 73.7161 6.51995 73.6166 6.51995H71.718C71.6184 6.51995 71.5683 6.57243 71.5683 6.67638C71.5683 8.865 71.4847 10.4308 71.319 11.3741C71.1515 12.3165 70.7907 13.3114 70.2362 14.3592ZM67.2716 19.6674C67.0168 19.6674 66.7945 19.5687 66.6062 19.3707C66.4179 19.1733 66.3225 18.9405 66.3225 18.673V15.2673C66.3225 15.046 66.3954 14.8595 66.5394 14.7092C66.6836 14.5581 66.8613 14.4813 67.0714 14.4813C67.1723 14.4813 67.2337 14.4527 67.2562 14.3954C67.9096 13.3476 68.3428 12.3284 68.5542 11.3388C68.7653 10.3497 68.8714 8.74339 68.8714 6.51995V5.12302C68.8714 4.8555 68.9628 4.62275 69.1459 4.42483C69.3287 4.22593 69.548 4.12721 69.8031 4.12721H75.5973C75.8538 4.12721 76.0751 4.22593 76.2644 4.42483C76.4526 4.62275 76.5467 4.8555 76.5467 5.12302V14.343C76.5467 14.4345 76.5911 14.4813 76.6801 14.4813H77.0634C77.3182 14.4813 77.5412 14.581 77.7288 14.7794C77.9187 14.9768 78.0129 15.2095 78.0129 15.4771V18.673C78.0129 18.9405 77.9187 19.1733 77.7288 19.3707C77.5412 19.5687 77.3182 19.6674 77.0634 19.6674H76.3472C76.0921 19.6674 75.8691 19.5687 75.6808 19.3707C75.4926 19.1733 75.3974 18.9405 75.3974 18.673V17.0319C75.3974 16.926 75.3528 16.874 75.2655 16.874H69.0709C68.9822 16.874 68.9382 16.926 68.9382 17.0319V18.673C68.9382 18.9405 68.8441 19.1733 68.6538 19.3707C68.4655 19.5687 68.2435 19.6674 67.9884 19.6674H67.2716ZM82.9906 11.7228C82.9804 11.7581 82.9879 11.7895 83.0162 11.82C83.0432 11.8487 83.0745 11.8625 83.1076 11.8625H85.3394C85.3728 11.8625 85.4021 11.8487 85.4308 11.82C85.458 11.7895 85.4669 11.7581 85.4553 11.7228L84.2399 6.71214C84.2399 6.69974 84.2347 6.69451 84.2228 6.69451C84.2126 6.69451 84.2075 6.69974 84.2075 6.71214L82.9906 11.7228ZM79.761 16.874C79.5267 16.874 79.3412 16.7753 79.2024 16.5779C79.0639 16.379 79.0339 16.1639 79.111 15.9311L82.4746 5.07058C82.5637 4.79108 82.7219 4.56505 82.949 4.38954C83.1765 4.21498 83.4289 4.12721 83.7075 4.12721H84.806C85.0948 4.12721 85.355 4.21498 85.5893 4.38954C85.8216 4.56505 85.9774 4.79108 86.0549 5.07058L89.4025 15.9311C89.4792 16.1639 89.4492 16.379 89.3111 16.5779C89.1709 16.7753 88.9854 16.874 88.7528 16.874H87.6369C87.3597 16.874 87.1107 16.7834 86.8877 16.6041C86.6656 16.4233 86.5217 16.1925 86.4545 15.914L86.0549 14.2552C86.0446 14.1618 85.988 14.1155 85.8884 14.1155H82.5582C82.4695 14.1155 82.4139 14.1618 82.3921 14.2552L81.9914 15.914C81.9256 16.1925 81.7813 16.4233 81.5593 16.6041C81.3366 16.7834 81.0873 16.874 80.8104 16.874H79.761ZM46.84 25.7114V29.4995C46.84 29.5932 46.8905 29.6509 46.9901 29.6743C47.368 29.7208 47.6677 29.7443 47.8898 29.7443C48.6888 29.7443 49.3074 29.5496 49.745 29.16C50.1846 28.7696 50.4035 28.225 50.4035 27.5271C50.4035 26.1416 49.5653 25.4496 47.8898 25.4496C47.6115 25.4496 47.3066 25.4782 46.9734 25.5359C46.884 25.5593 46.84 25.6185 46.84 25.7114ZM45.0094 36.117C44.7529 36.117 44.5316 36.0183 44.3419 35.8207C44.1537 35.6225 44.0596 35.3893 44.0596 35.1222V24.4543C44.0596 24.1743 44.1489 23.9235 44.3266 23.7027C44.5029 23.4814 44.7256 23.3597 44.992 23.3364C45.9349 23.2434 46.8462 23.1962 47.7223 23.1962C51.2749 23.1962 53.0513 24.5816 53.0513 27.353C53.0513 28.8543 52.6377 29.9905 51.8103 30.7654C50.984 31.5404 49.7716 31.9272 48.1721 31.9272C47.7499 31.9272 47.356 31.9091 46.9901 31.8749C46.8905 31.8749 46.84 31.921 46.84 32.0144V35.1222C46.84 35.3893 46.7459 35.6225 46.5577 35.8207C46.3691 36.0183 46.1467 36.117 45.8916 36.117H45.0094ZM62.4923 29.7443C62.4923 27.0081 61.5599 25.6413 59.6951 25.6413C57.8303 25.6413 56.8969 27.0081 56.8969 29.7443C56.8969 32.4794 57.8303 33.8484 59.6951 33.8484C61.5599 33.8484 62.4923 32.4794 62.4923 29.7443ZM63.8578 34.5541C62.836 35.7126 61.449 36.2915 59.6951 36.2915C57.9405 36.2915 56.5531 35.7126 55.5317 34.5541C54.5106 33.3971 54.0001 31.7927 54.0001 29.7443C54.0001 27.6955 54.5106 26.093 55.5317 24.9341C56.5531 23.7751 57.9405 23.1962 59.6951 23.1962C61.449 23.1962 62.836 23.7751 63.8578 24.9341C64.8788 26.093 65.3904 27.6955 65.3904 29.7443C65.3904 31.7927 64.8788 33.3971 63.8578 34.5541ZM72.2838 36.2915C70.4637 36.2915 69.0323 35.7278 67.9884 34.5974C66.9448 33.4695 66.4227 31.8518 66.4227 29.7443C66.4227 27.672 66.9281 26.062 67.939 24.916C68.9484 23.7694 70.3576 23.1962 72.1678 23.1962C73.0327 23.1962 73.7878 23.261 74.4327 23.3883C74.6993 23.4351 74.9149 23.5748 75.081 23.8085C75.2488 24.0398 75.3309 24.3017 75.3309 24.594V25.152C75.3309 25.3957 75.2368 25.588 75.0482 25.7282C74.86 25.8674 74.6547 25.9089 74.4327 25.8498C73.8103 25.6757 73.1667 25.588 72.501 25.588C71.5025 25.588 70.7215 25.9433 70.1615 26.6539C69.6008 27.3635 69.3195 28.3937 69.3195 29.7443C69.3195 31.0718 69.6203 32.1009 70.2191 32.8348C70.8194 33.5683 71.6184 33.9345 72.6177 33.9345C73.283 33.9345 73.933 33.8484 74.5657 33.6728C74.787 33.6144 74.9957 33.6566 75.1898 33.7943C75.3842 33.9345 75.481 34.1259 75.481 34.3721V34.8951C75.481 35.1867 75.3947 35.448 75.2232 35.6816C75.0506 35.913 74.8313 36.0532 74.5657 36.0994C73.9105 36.2281 73.1497 36.2915 72.2838 36.2915ZM83.0408 36.2915C81.2207 36.2915 79.7883 35.7278 78.7451 34.5974C77.7015 33.4695 77.1801 31.8518 77.1801 29.7443C77.1801 27.672 77.6844 26.062 78.6949 24.916C79.7047 23.7694 81.1146 23.1962 82.9245 23.1962C83.79 23.1962 84.5441 23.261 85.189 23.3883C85.4553 23.4351 85.6719 23.5748 85.838 23.8085C86.0051 24.0398 86.0873 24.3017 86.0873 24.594V25.152C86.0873 25.3957 85.9931 25.588 85.8049 25.7282C85.6166 25.8674 85.4113 25.9089 85.189 25.8498C84.5669 25.6757 83.9237 25.588 83.2577 25.588C82.2584 25.588 81.4781 25.9433 80.9185 26.6539C80.3578 27.3635 80.0768 28.3937 80.0768 29.7443C80.0768 31.0718 80.3769 32.1009 80.9754 32.8348C81.5764 33.5683 82.3754 33.9345 83.3743 33.9345C84.0397 33.9345 84.6897 33.8484 85.3226 33.6728C85.5433 33.6144 85.753 33.6566 85.9461 33.7943C86.1415 33.9345 86.2376 34.1259 86.2376 34.3721V34.8951C86.2376 35.1867 86.1514 35.448 85.9802 35.6816C85.8076 35.913 85.5883 36.0532 85.3226 36.0994C84.6679 36.2281 83.906 36.2915 83.0408 36.2915ZM89.6347 36.117C89.3789 36.117 89.1576 36.0183 88.9687 35.8207C88.7801 35.6225 88.686 35.3893 88.686 35.1222V24.3665C88.686 24.099 88.7801 23.8653 88.9687 23.6683C89.1576 23.4694 89.3789 23.3707 89.6347 23.3707H90.4512C90.7059 23.3707 90.9283 23.4694 91.1162 23.6683C91.3044 23.8653 91.3986 24.099 91.3986 24.3665V31.1756C91.3986 31.1879 91.4061 31.1936 91.4163 31.1936C91.4282 31.1936 91.4333 31.1879 91.4333 31.1756L94.93 24.2439C95.2188 23.6612 95.6789 23.3707 96.3115 23.3707H97.1276C97.3827 23.3707 97.6051 23.4694 97.793 23.6683C97.9836 23.8653 98.0778 24.099 98.0778 24.3665V35.1222C98.0778 35.3893 97.9836 35.6225 97.793 35.8207C97.6051 36.0183 97.3827 36.117 97.1276 36.117H96.3115C96.0564 36.117 95.8344 36.0183 95.6462 35.8207C95.4569 35.6225 95.3628 35.3893 95.3628 35.1222V28.3126C95.3628 28.3003 95.3573 28.2949 95.3457 28.2949C95.3355 28.2949 95.33 28.3003 95.33 28.3126L91.833 35.2437C91.5442 35.8265 91.0824 36.117 90.4512 36.117H89.6347ZM101.558 36.117C101.302 36.117 101.081 36.0183 100.891 35.8207C100.703 35.6225 100.609 35.3893 100.609 35.1222V24.3665C100.609 24.099 100.703 23.8653 100.891 23.6683C101.081 23.4694 101.302 23.3707 101.558 23.3707H102.374C102.629 23.3707 102.852 23.4694 103.04 23.6683C103.228 23.8653 103.322 24.099 103.322 24.3665V31.1756C103.322 31.1879 103.329 31.1936 103.339 31.1936C103.351 31.1936 103.356 31.1879 103.356 31.1756L106.853 24.2439C107.142 23.6612 107.602 23.3707 108.235 23.3707H109.051C109.306 23.3707 109.528 23.4694 109.717 23.6683C109.906 23.8653 110 24.099 110 24.3665V35.1222C110 35.3893 109.906 35.6225 109.717 35.8207C109.528 36.0183 109.306 36.117 109.051 36.117H108.235C107.98 36.117 107.758 36.0183 107.569 35.8207C107.379 35.6225 107.286 35.3893 107.286 35.1222V28.3126C107.286 28.3003 107.28 28.2949 107.268 28.2949C107.258 28.2949 107.253 28.3003 107.253 28.3126L103.757 35.2437C103.468 35.8265 103.005 36.117 102.374 36.117H101.558Z" fill="#38ACF5"/>
<path fill-rule="evenodd" clip-rule="evenodd" d="M31.35 27.8873L30.7297 28.411C29.5976 27.9926 28.3996 27.5463 27.0097 27.0193C22.9258 25.475 19.0566 24.3537 14.2368 24.649C11.0499 24.8445 6.24464 27.4155 3.24235 28.8767C2.25265 29.3673 1.34209 29.8579 0.456095 30.3521C0.372861 29.5901 0.316464 28.7783 0.292358 27.9079L0.266888 27.0511C4.21977 26.6649 7.77604 24.7739 11.0239 23.0112C14.4228 21.1626 17.1704 20.5975 19.2981 20.4659C22.5592 20.2665 26.0673 21.7287 29.3643 22.8443C31.1563 23.4533 32.6818 24.0275 34.089 24.5736C33.4777 25.5437 32.6013 26.6292 31.35 27.8873ZM24.7637 33.0147C14.8299 40.0096 3.33968 44.592 0.796303 32.5346C4.16064 31.065 7.79241 30.0349 10.4168 29.8741C13.4532 29.6878 16.4646 29.784 20.512 31.3303C22.0825 31.933 23.4679 32.4845 24.7637 33.0147ZM0.082684 21.8513C0.023102 19.9827 -0.0164677 18.0788 0.00672831 16.1993C0.684415 16.4573 1.39349 16.7234 2.19944 17.0434C4.73143 18.044 6.97283 18.6282 10.3885 18.4179C14.6748 18.1556 20.1832 13.1855 22.2604 12.1416C24.2802 11.1176 26.4225 10.4356 28.7225 10.2329C29.5817 10.9368 30.4136 11.6417 31.2073 12.3357C33.3763 14.1842 34.5967 16.3776 35.1219 18.1837C32.1378 16.8145 27.741 15.2802 24.3107 15.4906C20.7444 15.7085 18.076 16.9881 15.3407 18.4752C12.8278 19.8263 8.61018 22.0788 4.89291 22.3063C3.25782 22.406 1.60999 22.2162 0.082684 21.8513ZM0.413796 9.8552C0.477928 9.36874 0.551152 8.89035 0.634385 8.42155C3.14229 -5.68879 16.0816 0.507424 26.3574 8.36146C21.9957 10.9306 17.7713 13.1722 15.0541 13.3391C11.1836 13.5766 7.95252 12.9776 4.32757 11.4419C2.96445 10.8658 1.64865 10.3383 0.413796 9.8552Z" fill="#38ACF5"/>
<path d="M201.592 0.500152L232.917 67.8127C233.241 68.511 232.562 69.2564 231.836 68.9937L133.571 33.1547C133.227 33.0301 133 32.7034 133 32.3395V0.866456C133 0.387344 133.388 0 133.866 0H200.808C201.146 0 201.448 0.194533 201.592 0.500152Z" fill="#8AC97E"/>
<path d="M138.07 25.5236C138.07 26.1459 137.833 26.3444 137.398 26.3444H136.751V23.4008H137.398C137.833 23.4008 138.07 23.5984 138.07 24.2199V25.5236ZM137.398 22.1578H135.381V30.8544H136.751V27.5874H137.398C138.766 27.5874 139.437 26.8283 139.437 25.4367V24.3068C139.437 22.9161 138.766 22.1578 137.398 22.1578ZM143.061 28.854C143.061 29.4738 142.787 29.7119 142.352 29.7119C141.918 29.7119 141.642 29.4738 141.642 28.854V24.1574C141.642 23.5359 141.918 23.3012 142.352 23.3012C142.787 23.3012 143.061 23.5359 143.061 24.1574V28.854ZM142.352 22.0591C141.009 22.0591 140.275 22.8545 140.275 24.2427V28.767C140.275 30.1577 141.009 30.9523 142.352 30.9523C143.696 30.9523 144.43 30.1577 144.43 28.767V24.2427C144.43 22.8545 143.696 22.0591 142.352 22.0591ZM152.427 22.0591C151.082 22.0591 150.384 22.8545 150.384 24.2427V28.767C150.384 30.1577 151.082 30.9523 152.427 30.9523C153.769 30.9523 154.466 30.1577 154.466 28.767V27.6119H153.173V28.854C153.173 29.4738 152.899 29.6967 152.463 29.6967C152.028 29.6967 151.754 29.4738 151.754 28.854V24.1574C151.754 23.5359 152.028 23.3012 152.463 23.3012C152.899 23.3012 153.173 23.5359 153.173 24.1574V25.0888H154.466V24.2427C154.466 22.8545 153.769 22.0591 152.427 22.0591ZM147.418 22.0591C146.075 22.0591 145.378 22.8545 145.378 24.2427V28.767C145.378 30.1577 146.075 30.9523 147.418 30.9523C148.761 30.9523 149.459 30.1577 149.459 28.767V27.6119H148.166V28.854C148.166 29.4738 147.892 29.6967 147.455 29.6967C147.021 29.6967 146.746 29.4738 146.746 28.854V24.1574C146.746 23.5359 147.021 23.3012 147.455 23.3012C147.892 23.3012 148.166 23.5359 148.166 24.1574V25.0888H149.459V24.2427C149.459 22.8545 148.761 22.0591 147.418 22.0591ZM157.159 25.7465L156.661 27.6609V22.1578H155.442V30.8544H156.848L157.994 26.8671L158.553 24.7291V30.8544H159.785V22.1578H158.278L157.159 25.7465ZM162.583 25.7465L162.087 27.6609V22.1578H160.866V30.8544H162.27L163.416 26.8671L163.975 24.7291V30.8544H165.209V22.1578H163.702L162.583 25.7465ZM148.472 18.4205C148.472 19.0403 148.198 19.2767 147.762 19.2767C147.328 19.2767 147.054 19.0403 147.054 18.4205V13.7247C147.054 13.1024 147.328 12.8668 147.762 12.8668C148.198 12.8668 148.472 13.1024 148.472 13.7247V18.4205ZM147.762 11.6256C146.42 11.6256 145.683 12.4202 145.683 13.8109V18.3327C145.683 19.7234 146.42 20.518 147.762 20.518C149.104 20.518 149.84 19.7234 149.84 18.3327V13.8109C149.84 12.4202 149.104 11.6256 147.762 11.6256ZM158.74 11.7244L156.948 15.5124V11.7244H155.579V20.4184H156.948V17.7492L157.37 16.9546L158.701 20.4184H160.108L158.203 15.5994L160.108 11.7244H158.74ZM170.75 20.4184H172.117V11.7244H170.75V20.4184ZM162.24 20.4184H163.61V12.9665H165.041V11.7244H160.809V12.9665H162.24V20.4184ZM150.865 20.4184H154.596V19.1771H152.233V16.6312H154.111V15.3891H152.233V12.9665H154.596V11.7244H150.865V20.4184ZM168.597 18.3563C168.597 18.9786 168.363 19.1771 167.925 19.1771H167.278V16.2335H167.925C168.363 16.2335 168.597 16.4319 168.597 17.0526V18.3563ZM167.925 14.9905H167.278V11.7244H165.91V20.4184H167.925C169.295 20.4184 169.968 19.6618 169.968 18.2702V17.1387C169.968 15.7497 169.295 14.9905 167.925 14.9905ZM135.381 20.4184H136.751V12.9665H138.305V20.4184H139.699V11.7244H135.381V20.4184ZM143.48 15.0902C143.48 15.7125 143.245 15.9101 142.806 15.9101H142.16V12.9665H142.806C143.245 12.9665 143.48 13.1641 143.48 13.7864V15.0902ZM142.806 11.7244H140.792V20.4184H142.16V17.1522H142.806C144.177 17.1522 144.849 16.3948 144.849 15.0032V13.8726C144.849 12.4826 144.177 11.7244 142.806 11.7244ZM174.17 7.86125C174.145 8.66761 173.947 8.7563 173.326 8.7563V9.99757H173.534C174.905 9.99757 175.476 9.3761 175.527 7.78692L175.675 2.5322H176.871V9.98488H178.263V1.29009H174.394L174.17 7.86125ZM158.807 3.29129C158.807 2.67065 159.08 2.43254 159.516 2.43254C159.95 2.43254 160.224 2.67065 160.224 3.29129V7.98534C160.224 8.60598 159.95 8.84242 159.516 8.84242C159.08 8.84242 158.807 8.60598 158.807 7.98534V3.29129ZM159.516 10.0845C160.858 10.0845 161.592 9.28741 161.592 7.89921V3.37742C161.592 1.98499 160.858 1.19043 159.516 1.19043C158.172 1.19043 157.435 1.98499 157.435 3.37742V7.89921C157.435 9.28741 158.172 10.0845 159.516 10.0845ZM166.935 9.98488V1.29009H165.542V5.01559H163.985V1.29009H162.618V9.98488H163.985V6.25854H165.542V9.98488H166.935ZM169.488 7.22875L170.148 2.83027L170.809 7.22875H169.488ZM169.214 1.29009L167.821 9.98488H169.076L169.315 8.40756H170.995L171.228 9.98488H172.612L171.218 1.29009H169.214ZM187.328 5.01559H185.773V1.29009H184.405V9.98488H185.773V6.25854H187.328V9.98488H188.722V1.29009H187.328V5.01559ZM200.857 2.5322V1.29009H197.123V9.98488H200.857V8.74193H198.493V6.19607H200.371V4.95396H198.493V2.5322H200.857ZM194.657 9.98488H196.023V1.29009H194.657V9.98488ZM192.503 7.92371C192.503 8.54518 192.267 8.74193 191.83 8.74193H191.186V5.79918H191.83C192.267 5.79918 192.503 5.9976 192.503 6.61913V7.92371ZM191.83 4.55624H191.186V1.29009H189.814V9.98488H191.83C193.201 9.98488 193.873 9.22662 193.873 7.83758V6.70526C193.873 5.31533 193.201 4.55624 191.83 4.55624ZM182.067 7.92371C182.067 8.54518 181.827 8.74193 181.396 8.74193H180.747V5.79918H181.396C181.827 5.79918 182.067 5.9976 182.067 6.61913V7.92371ZM181.396 4.55624H180.747V1.29009H179.377V9.98488H181.396C182.762 9.98488 183.434 9.22662 183.434 7.83758V6.70526C183.434 5.31533 182.762 4.55624 181.396 4.55624ZM142.235 7.22875L142.894 2.83027L143.553 7.22875H142.235ZM141.962 1.29009L140.566 9.98488H141.825L142.062 8.40756H143.741L143.977 9.98488H145.36L143.965 1.29009H141.962ZM149.806 11.1519H151.137V8.76899H150.541V1.29009H149.148V8.74193H147.59V1.29009H146.223V9.98488H149.806V11.1519ZM156.425 9.98488V1.29009H154.917L153.799 4.8788L153.302 6.79305V1.29009H152.081V9.98488H153.487L154.633 5.9976L155.19 3.86211V9.98488H156.425ZM138.305 5.01559H136.751V1.29009H135.381V9.98488H136.751V6.25854H138.305V9.98488H139.699V1.29009H138.305V5.01559Z" fill="#FEFEFE"/>
</svg>
