<?xml version="1.0" encoding="utf-8"?>
<!-- Generator: Adobe Illustrator 23.1.0, SVG Export Plug-In . SVG Version: 6.00 Build 0)  -->
<svg version="1.1" id="Слой_1" xmlns="http://www.w3.org/2000/svg" xmlns:xlink="http://www.w3.org/1999/xlink" x="0px" y="0px"
	 viewBox="0 0 190.9 40" style="enable-background:new 0 0 190.9 40;" xml:space="preserve">
<style type="text/css">
	.st0{fill-rule:evenodd;clip-rule:evenodd;fill:#38ACF5;}
	.st1{fill:#8AC97E;}
	.st2{fill:#FEFEFE;}
</style>
<path class="st0" d="M46.8,11.5v3.1c0,0.1,0.1,0.2,0.2,0.2c0.2,0,0.5,0.1,0.8,0.1c0.8,0,1.4-0.2,1.7-0.5c0.4-0.3,0.5-0.8,0.5-1.4
	c0-1.1-0.8-1.6-2.5-1.6H47C46.9,11.3,46.8,11.4,46.8,11.5z M46.8,6.5V9c0,0.1,0.1,0.1,0.2,0.1h0.4c1.6,0,2.4-0.5,2.4-1.5
	c0-1-0.7-1.4-2-1.4c-0.3,0-0.6,0-0.8,0.1C46.9,6.3,46.8,6.4,46.8,6.5z M45,16.9c-0.3,0-0.5-0.1-0.7-0.4c-0.2-0.2-0.3-0.5-0.3-0.8
	V5.2c0-0.3,0.1-0.5,0.3-0.8c0.2-0.2,0.4-0.3,0.7-0.4C45.9,4,46.7,4,47.6,4c3.2,0,4.8,1.1,4.8,3.3c0,0.7-0.2,1.4-0.7,1.9
	c-0.4,0.5-1.1,0.8-1.8,1c0,0,0,0,0,0c0,0,0,0,0,0c0.9,0.1,1.6,0.5,2.1,1c0.5,0.6,0.8,1.3,0.8,2c0,1.3-0.4,2.3-1.2,2.9
	c-0.8,0.6-2.1,1-3.8,1C46.8,17,45.9,17,45,16.9z M62.3,10.5c0-2.7-0.9-4.1-2.8-4.1c-1.9,0-2.8,1.4-2.8,4.1c0,2.7,0.9,4.1,2.8,4.1
	C61.4,14.6,62.3,13.2,62.3,10.5z M63.7,15.3c-1,1.2-2.4,1.7-4.2,1.7c-1.8,0-3.1-0.6-4.2-1.7c-1-1.2-1.5-2.8-1.5-4.8
	c0-2,0.5-3.7,1.5-4.8c1-1.2,2.4-1.7,4.2-1.7c1.8,0,3.1,0.6,4.2,1.7c1,1.2,1.5,2.8,1.5,4.8C65.2,12.5,64.7,14.2,63.7,15.3z
	 M70.2,14.4C70.2,14.4,70.2,14.4,70.2,14.4c0,0.1,0,0.1,0.1,0.1h3.3c0.1,0,0.2,0,0.2-0.1V6.7c0-0.1-0.1-0.1-0.2-0.1h-1.9
	c-0.1,0-0.1,0.1-0.1,0.2c0,2.2-0.1,3.8-0.2,4.7C71.2,12.3,70.8,13.3,70.2,14.4z M67.3,19.7c-0.3,0-0.5-0.1-0.7-0.3
	c-0.2-0.2-0.3-0.4-0.3-0.7v-3.4c0-0.2,0.1-0.4,0.2-0.6c0.1-0.2,0.3-0.2,0.5-0.2c0.1,0,0.2,0,0.2-0.1c0.7-1,1.1-2.1,1.3-3.1
	c0.2-1,0.3-2.6,0.3-4.8V5.1c0-0.3,0.1-0.5,0.3-0.7c0.2-0.2,0.4-0.3,0.7-0.3h5.8c0.3,0,0.5,0.1,0.7,0.3c0.2,0.2,0.3,0.4,0.3,0.7v9.2
	c0,0.1,0,0.1,0.1,0.1h0.4c0.3,0,0.5,0.1,0.7,0.3c0.2,0.2,0.3,0.4,0.3,0.7v3.2c0,0.3-0.1,0.5-0.3,0.7c-0.2,0.2-0.4,0.3-0.7,0.3h-0.7
	c-0.3,0-0.5-0.1-0.7-0.3c-0.2-0.2-0.3-0.4-0.3-0.7V17c0-0.1,0-0.2-0.1-0.2h-6.2c-0.1,0-0.1,0.1-0.1,0.2v1.6c0,0.3-0.1,0.5-0.3,0.7
	c-0.2,0.2-0.4,0.3-0.7,0.3H67.3z M83,11.7C83,11.8,83,11.8,83,11.7c0.1,0.1,0.1,0.1,0.1,0.1h2.2c0,0,0.1,0,0.1,0c0,0,0-0.1,0-0.1
	l-1.2-5c0,0,0,0,0,0c0,0,0,0,0,0L83,11.7z M79.8,16.9c-0.2,0-0.4-0.1-0.6-0.3c-0.1-0.2-0.2-0.4-0.1-0.6l3.4-10.9
	c0.1-0.3,0.2-0.5,0.5-0.7c0.2-0.2,0.5-0.3,0.8-0.3h1.1c0.3,0,0.5,0.1,0.8,0.3c0.2,0.2,0.4,0.4,0.5,0.7l3.3,10.9
	c0.1,0.2,0,0.4-0.1,0.6c-0.1,0.2-0.3,0.3-0.6,0.3h-1.1c-0.3,0-0.5-0.1-0.7-0.3c-0.2-0.2-0.4-0.4-0.4-0.7l-0.4-1.7
	c0-0.1-0.1-0.1-0.2-0.1h-3.3c-0.1,0-0.1,0-0.2,0.1L82,15.9c-0.1,0.3-0.2,0.5-0.4,0.7c-0.2,0.2-0.5,0.3-0.7,0.3H79.8z M46.8,25.7v3.8
	c0,0.1,0.1,0.2,0.2,0.2c0.4,0,0.7,0.1,0.9,0.1c0.8,0,1.4-0.2,1.9-0.6c0.4-0.4,0.7-0.9,0.7-1.6c0-1.4-0.8-2.1-2.5-2.1
	c-0.3,0-0.6,0-0.9,0.1C46.9,25.6,46.8,25.6,46.8,25.7z M45,36.1c-0.3,0-0.5-0.1-0.7-0.3c-0.2-0.2-0.3-0.4-0.3-0.7V24.5
	c0-0.3,0.1-0.5,0.3-0.8c0.2-0.2,0.4-0.3,0.7-0.4c0.9-0.1,1.9-0.1,2.7-0.1c3.6,0,5.3,1.4,5.3,4.2c0,1.5-0.4,2.6-1.2,3.4
	c-0.8,0.8-2,1.2-3.6,1.2c-0.4,0-0.8,0-1.2-0.1c-0.1,0-0.2,0-0.2,0.1v3.1c0,0.3-0.1,0.5-0.3,0.7c-0.2,0.2-0.4,0.3-0.7,0.3H45z
	 M62.5,29.7c0-2.7-0.9-4.1-2.8-4.1s-2.8,1.4-2.8,4.1c0,2.7,0.9,4.1,2.8,4.1S62.5,32.5,62.5,29.7z M63.9,34.6c-1,1.2-2.4,1.7-4.2,1.7
	c-1.8,0-3.1-0.6-4.2-1.7c-1-1.2-1.5-2.8-1.5-4.8c0-2,0.5-3.7,1.5-4.8c1-1.2,2.4-1.7,4.2-1.7c1.8,0,3.1,0.6,4.2,1.7
	c1,1.2,1.5,2.8,1.5,4.8C65.4,31.8,64.9,33.4,63.9,34.6z M72.3,36.3c-1.8,0-3.3-0.6-4.3-1.7c-1-1.1-1.6-2.7-1.6-4.9
	c0-2.1,0.5-3.7,1.5-4.8c1-1.1,2.4-1.7,4.2-1.7c0.9,0,1.6,0.1,2.3,0.2c0.3,0,0.5,0.2,0.6,0.4c0.2,0.2,0.2,0.5,0.2,0.8v0.6
	c0,0.2-0.1,0.4-0.3,0.6c-0.2,0.1-0.4,0.2-0.6,0.1c-0.6-0.2-1.3-0.3-1.9-0.3c-1,0-1.8,0.4-2.3,1.1c-0.6,0.7-0.8,1.7-0.8,3.1
	c0,1.3,0.3,2.4,0.9,3.1c0.6,0.7,1.4,1.1,2.4,1.1c0.7,0,1.3-0.1,1.9-0.3c0.2-0.1,0.4,0,0.6,0.1c0.2,0.1,0.3,0.3,0.3,0.6v0.5
	c0,0.3-0.1,0.6-0.3,0.8c-0.2,0.2-0.4,0.4-0.7,0.4C73.9,36.2,73.1,36.3,72.3,36.3z M83,36.3c-1.8,0-3.3-0.6-4.3-1.7
	c-1-1.1-1.6-2.7-1.6-4.9c0-2.1,0.5-3.7,1.5-4.8c1-1.1,2.4-1.7,4.2-1.7c0.9,0,1.6,0.1,2.3,0.2c0.3,0,0.5,0.2,0.6,0.4
	c0.2,0.2,0.2,0.5,0.2,0.8v0.6c0,0.2-0.1,0.4-0.3,0.6c-0.2,0.1-0.4,0.2-0.6,0.1c-0.6-0.2-1.3-0.3-1.9-0.3c-1,0-1.8,0.4-2.3,1.1
	c-0.6,0.7-0.8,1.7-0.8,3.1c0,1.3,0.3,2.4,0.9,3.1c0.6,0.7,1.4,1.1,2.4,1.1c0.7,0,1.3-0.1,1.9-0.3c0.2-0.1,0.4,0,0.6,0.1
	c0.2,0.1,0.3,0.3,0.3,0.6v0.5c0,0.3-0.1,0.6-0.3,0.8c-0.2,0.2-0.4,0.4-0.7,0.4C84.7,36.2,83.9,36.3,83,36.3z M89.6,36.1
	c-0.3,0-0.5-0.1-0.7-0.3c-0.2-0.2-0.3-0.4-0.3-0.7V24.4c0-0.3,0.1-0.5,0.3-0.7c0.2-0.2,0.4-0.3,0.7-0.3h0.8c0.3,0,0.5,0.1,0.7,0.3
	c0.2,0.2,0.3,0.4,0.3,0.7v6.8c0,0,0,0,0,0c0,0,0,0,0,0l3.5-6.9c0.3-0.6,0.7-0.9,1.4-0.9h0.8c0.3,0,0.5,0.1,0.7,0.3
	c0.2,0.2,0.3,0.4,0.3,0.7v10.8c0,0.3-0.1,0.5-0.3,0.7c-0.2,0.2-0.4,0.3-0.7,0.3h-0.8c-0.3,0-0.5-0.1-0.7-0.3
	c-0.2-0.2-0.3-0.4-0.3-0.7v-6.8c0,0,0,0,0,0c0,0,0,0,0,0l-3.5,6.9c-0.3,0.6-0.8,0.9-1.4,0.9H89.6z M101.6,36.1
	c-0.3,0-0.5-0.1-0.7-0.3c-0.2-0.2-0.3-0.4-0.3-0.7V24.4c0-0.3,0.1-0.5,0.3-0.7c0.2-0.2,0.4-0.3,0.7-0.3h0.8c0.3,0,0.5,0.1,0.7,0.3
	c0.2,0.2,0.3,0.4,0.3,0.7v6.8c0,0,0,0,0,0c0,0,0,0,0,0l3.5-6.9c0.3-0.6,0.7-0.9,1.4-0.9h0.8c0.3,0,0.5,0.1,0.7,0.3
	c0.2,0.2,0.3,0.4,0.3,0.7v10.8c0,0.3-0.1,0.5-0.3,0.7c-0.2,0.2-0.4,0.3-0.7,0.3h-0.8c-0.3,0-0.5-0.1-0.7-0.3
	c-0.2-0.2-0.3-0.4-0.3-0.7v-6.8c0,0,0,0,0,0c0,0,0,0,0,0l-3.5,6.9c-0.3,0.6-0.8,0.9-1.4,0.9H101.6z"/>
<path class="st0" d="M31.4,27.9l-0.6,0.5C29.6,28,28.4,27.5,27,27c-4.1-1.5-8-2.7-12.8-2.4c-3.2,0.2-8,2.8-11,4.2
	c-1,0.5-1.9,1-2.8,1.5c-0.1-0.8-0.1-1.6-0.2-2.4l0-0.9c4-0.4,7.5-2.3,10.8-4c3.4-1.8,6.1-2.4,8.3-2.5c3.3-0.2,6.8,1.3,10.1,2.4
	c1.8,0.6,3.3,1.2,4.7,1.7C33.5,25.5,32.6,26.6,31.4,27.9z M24.8,33c-9.9,7-21.4,11.6-24-0.5c3.4-1.5,7-2.5,9.6-2.7
	c3-0.2,6-0.1,10.1,1.5C22.1,31.9,23.5,32.5,24.8,33z M0.1,21.9C0,20,0,18.1,0,16.2c0.7,0.3,1.4,0.5,2.2,0.8c2.5,1,4.8,1.6,8.2,1.4
	c4.3-0.3,9.8-5.2,11.9-6.3c2-1,4.2-1.7,6.5-1.9c0.9,0.7,1.7,1.4,2.5,2.1c2.2,1.8,3.4,4,3.9,5.8c-3-1.4-7.4-2.9-10.8-2.7
	c-3.6,0.2-6.2,1.5-9,3c-2.5,1.4-6.7,3.6-10.4,3.8C3.3,22.4,1.6,22.2,0.1,21.9z M0.4,9.9c0.1-0.5,0.1-1,0.2-1.4
	C3.1-5.7,16.1,0.5,26.4,8.4c-4.4,2.6-8.6,4.8-11.3,5C11.2,13.6,8,13,4.3,11.4C3,10.9,1.6,10.3,0.4,9.9z"/>
<path class="st1" d="M172.7,0.3l18.1,39c0.2,0.4-0.2,0.8-0.6,0.7l-56.9-20.8c-0.2-0.1-0.3-0.3-0.3-0.5V0.5c0-0.3,0.2-0.5,0.5-0.5
	h38.8C172.5,0,172.7,0.1,172.7,0.3z"/>
<path class="st2" d="M135.9,14.8c0,0.4-0.1,0.5-0.4,0.5h-0.4v-1.7h0.4c0.3,0,0.4,0.1,0.4,0.5V14.8z M135.5,12.8h-1.2v5h0.8V16h0.4
	c0.8,0,1.2-0.4,1.2-1.2v-0.7C136.7,13.3,136.3,12.8,135.5,12.8z M138.8,16.7c0,0.4-0.2,0.5-0.4,0.5c-0.3,0-0.4-0.1-0.4-0.5V14
	c0-0.4,0.2-0.5,0.4-0.5c0.3,0,0.4,0.1,0.4,0.5V16.7z M138.4,12.8c-0.8,0-1.2,0.5-1.2,1.3v2.6c0,0.8,0.4,1.3,1.2,1.3
	c0.8,0,1.2-0.5,1.2-1.3V14C139.6,13.2,139.2,12.8,138.4,12.8z M144.3,12.8c-0.8,0-1.2,0.5-1.2,1.3v2.6c0,0.8,0.4,1.3,1.2,1.3
	c0.8,0,1.2-0.5,1.2-1.3V16h-0.7v0.7c0,0.4-0.2,0.5-0.4,0.5c-0.3,0-0.4-0.1-0.4-0.5V14c0-0.4,0.2-0.5,0.4-0.5c0.3,0,0.4,0.1,0.4,0.5
	v0.5h0.7V14C145.4,13.2,145,12.8,144.3,12.8z M141.4,12.8c-0.8,0-1.2,0.5-1.2,1.3v2.6c0,0.8,0.4,1.3,1.2,1.3s1.2-0.5,1.2-1.3V16
	h-0.7v0.7c0,0.4-0.2,0.5-0.4,0.5c-0.3,0-0.4-0.1-0.4-0.5V14c0-0.4,0.2-0.5,0.4-0.5c0.3,0,0.4,0.1,0.4,0.5v0.5h0.7V14
	C142.5,13.2,142.1,12.8,141.4,12.8z M147,14.9l-0.3,1.1v-3.2H146v5h0.8l0.7-2.3l0.3-1.2v3.5h0.7v-5h-0.9L147,14.9z M150.1,14.9
	l-0.3,1.1v-3.2h-0.7v5h0.8l0.7-2.3l0.3-1.2v3.5h0.7v-5h-0.9L150.1,14.9z M142,10.7c0,0.4-0.2,0.5-0.4,0.5c-0.3,0-0.4-0.1-0.4-0.5V8
	c0-0.4,0.2-0.5,0.4-0.5c0.3,0,0.4,0.1,0.4,0.5V10.7z M141.6,6.7c-0.8,0-1.2,0.5-1.2,1.3v2.6c0,0.8,0.4,1.3,1.2,1.3s1.2-0.5,1.2-1.3
	V8C142.8,7.2,142.3,6.7,141.6,6.7z M147.9,6.8l-1,2.2V6.8h-0.8v5h0.8v-1.5l0.2-0.5l0.8,2h0.8L147.6,9l1.1-2.2H147.9z M154.9,11.8
	h0.8v-5h-0.8V11.8z M149.9,11.8h0.8V7.5h0.8V6.8h-2.5v0.7h0.8V11.8z M143.3,11.8h2.2v-0.7h-1.4V9.6h1.1V8.9h-1.1V7.5h1.4V6.8h-2.2
	V11.8z M153.6,10.6c0,0.4-0.1,0.5-0.4,0.5h-0.4V9.4h0.4c0.3,0,0.4,0.1,0.4,0.5V10.6z M153.2,8.7h-0.4V6.8h-0.8v5h1.2
	c0.8,0,1.2-0.4,1.2-1.2V9.9C154.4,9.1,154,8.7,153.2,8.7z M134.4,11.8h0.8V7.5h0.9v4.3h0.8v-5h-2.5V11.8z M139.1,8.7
	c0,0.4-0.1,0.5-0.4,0.5h-0.4V7.5h0.4c0.3,0,0.4,0.1,0.4,0.5V8.7z M138.7,6.8h-1.2v5h0.8V9.9h0.4c0.8,0,1.2-0.4,1.2-1.2V8
	C139.9,7.2,139.5,6.8,138.7,6.8z M156.9,4.6c0,0.5-0.1,0.5-0.5,0.5v0.7h0.1c0.8,0,1.1-0.4,1.2-1.3l0.1-3h0.7v4.3h0.8v-5H157
	L156.9,4.6z M148,1.9c0-0.4,0.2-0.5,0.4-0.5c0.3,0,0.4,0.1,0.4,0.5v2.7c0,0.4-0.2,0.5-0.4,0.5c-0.3,0-0.4-0.1-0.4-0.5V1.9z
	 M148.4,5.8c0.8,0,1.2-0.5,1.2-1.3V2c0-0.8-0.4-1.3-1.2-1.3c-0.8,0-1.2,0.5-1.2,1.3v2.6C147.2,5.4,147.6,5.8,148.4,5.8z M152.7,5.8
	v-5h-0.8v2.2h-0.9V0.7h-0.8v5h0.8V3.6h0.9v2.2H152.7z M154.1,4.2l0.4-2.5l0.4,2.5H154.1z M154,0.7l-0.8,5h0.7l0.1-0.9h1l0.1,0.9h0.8
	l-0.8-5H154z M164.5,2.9h-0.9V0.7h-0.8v5h0.8V3.6h0.9v2.2h0.8v-5h-0.8V2.9z M172.3,1.5V0.7h-2.2v5h2.2V5.1h-1.4V3.6h1.1V2.9h-1.1
	V1.5H172.3z M168.7,5.8h0.8v-5h-0.8V5.8z M167.5,4.6c0,0.4-0.1,0.5-0.4,0.5h-0.4V3.4h0.4c0.3,0,0.4,0.1,0.4,0.5V4.6z M167.1,2.6
	h-0.4V0.7h-0.8v5h1.2c0.8,0,1.2-0.4,1.2-1.2V3.9C168.3,3.1,167.9,2.6,167.1,2.6z M161.4,4.6c0,0.4-0.1,0.5-0.4,0.5h-0.4V3.4h0.4
	c0.2,0,0.4,0.1,0.4,0.5V4.6z M161,2.6h-0.4V0.7h-0.8v5h1.2c0.8,0,1.2-0.4,1.2-1.2V3.9C162.2,3.1,161.8,2.6,161,2.6z M138.3,4.2
	l0.4-2.5l0.4,2.5H138.3z M138.2,0.7l-0.8,5h0.7l0.1-0.9h1l0.1,0.9h0.8l-0.8-5H138.2z M142.7,6.5h0.8V5.1h-0.3V0.7h-0.8v4.3h-0.9V0.7
	h-0.8v5h2.1V6.5z M146.6,5.8v-5h-0.9L145,2.8l-0.3,1.1V0.7h-0.7v5h0.8l0.7-2.3l0.3-1.2v3.5H146.6z M136.1,2.9h-0.9V0.7h-0.8v5h0.8
	V3.6h0.9v2.2h0.8v-5h-0.8V2.9z"/>
</svg>
