<?xml version="1.0" encoding="utf-8"?>
<!-- Generator: Adobe Illustrator 23.1.0, SVG Export Plug-In . SVG Version: 6.00 Build 0)  -->
<svg version="1.1" id="Слой_1" xmlns="http://www.w3.org/2000/svg" xmlns:xlink="http://www.w3.org/1999/xlink" x="0px" y="0px"
	 viewBox="0 0 100 100" style="enable-background:new 0 0 100 100;" xml:space="preserve">
<style type="text/css">
	.st0{fill:#38ACF5;}
</style>
<path class="st0" d="M39.5,68.1c0-0.6,0.4-1,1-1h19c0.6,0,1,0.4,1,1v2.3c0,0.6-0.4,1-1,1h-19c-0.6,0-1-0.4-1-1V68.1z M43.7,76.7
	c0-0.6,0.4-1,1-1h10.6c0.6,0,1,0.4,1,1V79c0,0.6-0.4,1-1,1H44.7c-0.6,0-1-0.4-1-1V76.7z M50,20c-5.6,0-10.9,2.3-14.9,6.3
	c-3.9,4-6.2,9.5-6.2,15.2c-0.1,3.1,0.4,6.2,1.7,9.1c1.3,2.8,3.2,5.3,5.6,7.3c1.7,1.6,2.8,2.7,3.1,4.1c0.1,0.5,0.6,1,1.1,1h2.2
	c0.6,0,1-0.4,0.9-1c-0.4-3.3-2.5-5.3-4.6-7.3c-2-1.5-3.5-3.5-4.6-5.8c-1-2.3-1.5-4.8-1.3-7.3c0-4.5,1.8-8.9,4.9-12.1
	c3.2-3.2,7.4-5,11.9-5c4.5,0,8.7,1.8,11.9,5c3.2,3.2,4.9,7.6,4.9,12.1c0.1,2.5-0.3,5-1.4,7.3c-1,2.3-2.6,4.3-4.6,5.8
	c-2.1,2-4.2,3.9-4.5,7.3c-0.1,0.5,0.4,1,0.9,1h2.2c0.6,0,1-0.5,1.1-1c0.3-1.4,1.4-2.5,3.1-4.1c2.4-1.9,4.3-4.4,5.6-7.3
	c1.3-2.8,1.9-5.9,1.7-9c0-2.8-0.5-5.6-1.6-8.2c-1.1-2.6-2.6-5-4.6-7c-2-2-4.3-3.6-6.8-4.6C55.5,20.6,52.8,20,50,20z"/>
</svg>
