<?xml version="1.0" encoding="utf-8"?>
<!-- Generator: Adobe Illustrator 23.1.0, SVG Export Plug-In . SVG Version: 6.00 Build 0)  -->
<svg version="1.1" id="Слой_1" xmlns="http://www.w3.org/2000/svg" xmlns:xlink="http://www.w3.org/1999/xlink" x="0px" y="0px"
	 viewBox="0 0 100 100" style="enable-background:new 0 0 100 100;" xml:space="preserve">
<style type="text/css">
	.st0{fill-rule:evenodd;clip-rule:evenodd;fill:#38ACF5;}
</style>
<path class="st0" d="M12.4,25.6c-0.6,0.3-0.9,0.7-1.1,1.1c-0.1,0.2-0.3,1.6-0.6,3.2c-0.2,1.5-0.5,3.1-0.6,3.5
	C10,34.1,9.6,37.3,9.2,40c-0.3,2.3-0.9,7.9-1.1,9.8C8,50.7,8,51.7,7.9,52c0,0.3-0.1,1.4-0.1,2.3c0,1-0.1,1.8-0.2,1.9
	c-0.1,0.1-0.1,0.8-0.1,1.5c0,1.3,0,1.4,0.3,1.9c0.8,1.1,1.6,1.3,6.7,1.2c4.1,0,6.9-0.2,7.5-0.5c0.6-0.3,0.7-0.5,1.3-2.4
	c0.3-0.9,0.5-1.7,0.6-1.7c0,0,1.2,0.9,2.7,2.1c1.4,1.2,3,2.5,3.5,2.9c0.5,0.4,1.3,1.1,1.9,1.6c1.5,1.3,7.8,6.4,9.9,8.1
	c2.2,1.7,2.9,2.2,4,2.7c1,0.4,3.1,0.8,3.9,0.8c1.3-0.1,2.6-0.6,3.4-1.3l0.4-0.3l0.9,0.3c1.2,0.4,3.2,0.4,4.4,0
	c1.1-0.4,2.2-1.1,2.8-1.8l0.4-0.5L63,71c2.4,0.2,5.1-1.1,6.2-3.1c0.3-0.6,0.4-0.7,0.7-0.7c0.6,0,1.9-0.5,2.7-1.1
	c1.4-1,2.3-2.8,2.3-4.7c0-0.5-0.1-1.1-0.1-1.2c-0.1-0.3,0-0.5,1.1-1.3c0.4-0.3,0.5-0.3,0.7-0.2c1.2,0.9,5,1.3,10.1,1.2
	c4.6-0.1,5.1-0.2,5.6-1.2c0.2-0.5,0.2-0.5,0-3c-0.7-6.6-1.9-13-3.1-17.3c-1-3.6-2.5-6.8-3.5-7.4c-0.8-0.5-5.1-0.7-7.9-0.4
	c-2.5,0.3-5.6,1.1-7.8,1.9c-0.5,0.2-1,0.3-1.1,0.3c-0.7,0-7.5-2.6-11.3-4.3c-4.1-1.8-8.9-1.8-13,0.1l-1.1,0.5L42,29.2
	c-0.9,0-2.7-0.1-4-0.2c-1.3-0.1-3.9-0.2-5.8-0.2c-2.8-0.1-3.6-0.1-4.3-0.3c-2.4-0.7-6.9-1.6-11.7-2.4c-1.4-0.2-2.8-0.5-3-0.5
	C12.9,25.5,12.6,25.5,12.4,25.6z M18,29.9c3.3,0.6,6.5,1.3,7.9,1.6l0.7,0.2l-0.1,0.7c-0.2,1.8-1.2,6.3-2.3,10.4
	c-0.4,1.4-0.7,2.8-0.8,3c-0.2,0.9-1.5,5-2.4,8l-1,3.2l-0.8,0.1c-1.5,0.1-6.6,0.2-7.3,0.1l-0.6-0.1l0-0.9c0.1-3.4,0.6-8.4,1.2-13.5
	c0.4-3.4,1.8-12.8,2-13.3C14.5,29.3,14.4,29.3,18,29.9z M54.1,31.1c0.6,0.1,1.5,0.4,2,0.6c0.5,0.2,2,0.9,3.4,1.4
	c2.5,1.1,6.4,2.5,7.9,3l0.8,0.2l0.7,1.6c0.8,1.8,2.6,6.2,3.4,8.3c1.2,3.4,3,8.5,3,8.7c0,0.1-1.8,1.5-2.1,1.6c-0.1,0-0.6-0.6-1.2-1.3
	C68.4,50.7,59,42,53.6,38.4c-1.2-0.8-1.6-0.8-3.3-0.2c-0.8,0.3-1.6,0.5-2.4,0.6c-0.7,0.1-1.4,0.2-1.5,0.3c-0.2,0.1-0.7,0.7-1.2,1.4
	c-1.8,2.4-3,3.4-4.4,3.7c-0.7,0.1-1,0.1-1.5,0c-1-0.2-1.2-0.6-1.2-1.8c0-2.2,1.5-5.3,3.5-7.3c2.2-2.2,5.7-3.9,8.8-4.2
	C51.2,30.7,52.9,30.9,54.1,31.1z M37.2,32.5c0.9,0,1.7,0.1,1.7,0.1c0,0-0.3,0.5-0.7,1c-3.3,4.1-4.6,9.3-2.9,11.9
	c0.6,0.9,1.5,1.6,2.7,2.1c0.6,0.2,1,0.3,2.2,0.3c1.3,0,1.5,0,2.4-0.4c0.5-0.2,1.3-0.6,1.7-0.9c1-0.6,2.6-2.3,3.4-3.4
	c0.6-0.8,0.6-0.8,1.3-0.9c0.4,0,1.2-0.3,1.8-0.5l1.1-0.4l1.2,0.9c3.7,2.8,7,5.6,11.1,9.7c4.2,4.1,6.1,6.4,7,8.2
	c0.6,1.3,0.3,2.7-0.8,3.3c-0.5,0.3-0.9,0.2-1.4-0.2c-0.5-0.4-3.9-3.4-5.3-4.7c-0.5-0.5-1.2-1.1-1.6-1.5c-0.7-0.6-1.8-1.6-3.6-3.3
	c-1.2-1.2-1.7-1.4-2.4-1.3c-1.1,0.1-1.8,1.2-1.4,2.2c0.1,0.4,0.8,1.1,4.2,4.3c2.3,2.1,4.9,4.4,5.8,5.3c0.9,0.8,1.7,1.6,1.7,1.7
	c0,0.3-1,1.1-1.6,1.3c-0.7,0.2-1.6,0.3-2,0.1c-0.3-0.2-1.1-0.8-3-2.4c-1.8-1.6-6.7-6-7-6.4c-0.4-0.4-0.9-0.6-1.5-0.6
	c-0.7,0-1.2,0.3-1.5,0.9c-0.3,0.6-0.3,1-0.1,1.6c0.2,0.4,2.6,2.6,6.5,6.1c1.1,1,2.3,2,2.5,2.2l0.5,0.4l-0.3,0.3
	c-0.4,0.3-1.4,0.6-2,0.6c-1.5,0-2.6-0.8-7.1-5.3c-3.2-3.2-3.4-3.4-4.4-3.1c-0.6,0.2-1.1,0.7-1.2,1.2c-0.2,1-0.1,1.1,3.4,4.6
	c2.2,2.2,3.2,3.3,3.1,3.4c-0.6,0.4-3.1-0.1-4.1-0.8c-0.6-0.4-5.3-4.2-9.6-7.7c-4-3.3-7.6-6.3-11.3-9.4l-0.4-0.3l0.7-2.4
	c0.9-3.1,1.2-4.2,1.8-6.5c0.8-3.1,0.8-3.2,1.9-8.1c0.1-0.3,0.2-1.1,0.3-1.8c0.1-0.7,0.2-1.3,0.3-1.3C30.2,32.3,34.3,32.3,37.2,32.5z
	 M83.4,34.1c0.4,0.1,0.5,0.2,0.8,1c1.2,2.6,2.4,7,3.3,12.7c0.4,2.6,1,6.3,1.1,7.6l0.1,0.9l-1.1,0.1c-1.6,0.1-6.3,0-7.4-0.2l-0.9-0.2
	l-1.3-4c-1.3-3.8-2.3-6.7-3-8.4c-1.2-3.1-2.3-5.8-2.8-6.8c-0.3-0.6-0.5-1.2-0.5-1.2c0.5-0.3,3.5-1.1,5.5-1.4
	C79,34,82.4,33.9,83.4,34.1z"/>
</svg>
