<?xml version="1.0" encoding="utf-8"?>
<!-- Generator: Adobe Illustrator 23.1.0, SVG Export Plug-In . SVG Version: 6.00 Build 0)  -->
<svg version="1.1" id="Слой_1" xmlns="http://www.w3.org/2000/svg" xmlns:xlink="http://www.w3.org/1999/xlink" x="0px" y="0px"
	 viewBox="0 0 100 100" style="enable-background:new 0 0 100 100;" xml:space="preserve">
<style type="text/css">
	.st0{fill-rule:evenodd;clip-rule:evenodd;fill:#38ACF5;}
</style>
<path class="st0" d="M38.6,20.2c-4,1.1-6.3,5.5-4.8,9.5c0.2,0.5,0.5,1.1,0.7,1.4c0.2,0.3,0.4,0.6,0.4,0.7c0,0.1-0.4,0.3-0.9,0.6
	c-0.5,0.3-1.4,1-2,1.6c-1.1,1.1-1.2,1.1-2.2,1.3c-2,0.3-3.8,1.5-4.9,3.2c-1.3,2-1.5,4.7-0.5,6.8c0.3,0.6,0.6,1.2,0.8,1.4
	c0.2,0.2,0.2,0.3,0.1,0.4c-0.7,0.2-2.3,1.4-3.1,2.2c-0.9,1-1,1-2,1.2C17.3,50.9,15,53,14.3,56c-0.4,1.8,0,4,1,5.6l0.5,0.7l-0.6,0.3
	c-2.4,1.2-4.3,3.6-4.9,6.4c-0.3,1.4-0.3,9.6,0,10.2C10.6,80.1,7.8,80,50,80s39.4,0.1,39.8-0.9c0.3-0.6,0.3-8.8,0-10.2
	c-0.6-2.8-2.5-5.2-5-6.4l-0.6-0.3l0.5-0.7c2.9-4.2,0.2-10.4-4.9-11.1c-1-0.1-1.1-0.2-2-1.2c-0.8-0.8-2.4-2-3.1-2.2
	c-0.1,0-0.1-0.2,0.1-0.4c0.1-0.2,0.5-0.8,0.8-1.4c0.7-1.5,0.8-3.4,0.3-5.1c-0.8-2.6-3-4.5-5.7-5c-1-0.2-1.1-0.2-2.1-1.3
	c-0.6-0.6-1.5-1.3-2-1.6c-0.5-0.3-0.9-0.5-0.9-0.6c0-0.1,0.2-0.4,0.4-0.7c1-1.5,1.4-3.6,1-5.5c-0.9-4.3-5.3-6.7-9.4-5.2
	c-1.9,0.7-3.7,2.6-4.3,4.6c-0.6,1.9-0.2,4.5,0.8,6.1c0.2,0.3,0.4,0.6,0.4,0.7c0,0.1-0.4,0.3-0.9,0.6c-0.5,0.3-1.4,1-2,1.6L50,35.1
	L48.9,34c-0.6-0.6-1.5-1.3-2-1.6c-0.5-0.3-0.9-0.5-0.9-0.6c0-0.1,0.2-0.4,0.4-0.7c1-1.5,1.4-3.6,1-5.5
	C46.4,21.7,42.4,19.2,38.6,20.2z M42.1,23.6c1.7,0.9,2.6,2.8,2.1,4.6c-1.1,4.1-6.6,4.1-7.7,0c-0.5-2,0.7-4.2,2.8-4.9
	C40,23.1,41.5,23.2,42.1,23.6z M61.3,23.6c1.7,0.9,2.6,2.8,2.1,4.6c-1.1,4.1-6.6,4.1-7.7,0c-0.5-2,0.7-4.2,2.8-4.9
	C59.2,23.1,60.7,23.2,61.3,23.6z M43.5,34.5c0.9,0.2,2,0.7,2.7,1.2l0.3,0.3l-0.9,0.7c-1.9,1.5-2.8,3.5-2.7,6.1
	c0.1,1.2,0.1,1.6,0.6,2.6c0.3,0.6,0.6,1.2,0.8,1.4c0.2,0.2,0.2,0.3,0.1,0.4c-0.7,0.2-2.3,1.4-3.1,2.2c-0.5,0.5-1,1-1,1s-0.5-0.4-1-1
	c-0.8-0.8-2.4-2-3.1-2.2c-0.1,0-0.1-0.2,0.1-0.4c0.1-0.2,0.5-0.8,0.8-1.4c0.4-0.9,0.5-1.3,0.6-2.6c0.1-2.5-0.8-4.5-2.7-6.1L34.2,36
	l0.3-0.3c0.6-0.5,1.5-0.9,2.3-1.1C37.9,34.3,42.2,34.3,43.5,34.5z M62.7,34.5c0.9,0.2,2,0.7,2.7,1.2l0.3,0.3l-0.9,0.7
	c-1.9,1.5-2.8,3.5-2.7,6.1c0.1,1.2,0.1,1.6,0.6,2.6c0.3,0.6,0.6,1.2,0.8,1.4c0.2,0.2,0.2,0.3,0.1,0.4c-0.7,0.2-2.3,1.4-3.1,2.2
	c-0.5,0.5-1,1-1,1c0,0-0.5-0.4-1-1c-0.8-0.8-2.4-2-3.1-2.2c-0.1,0-0.1-0.2,0.1-0.4c0.1-0.2,0.5-0.8,0.8-1.4c0.4-0.9,0.5-1.3,0.6-2.6
	c0.1-2.5-0.8-4.5-2.7-6.1L53.4,36l0.3-0.3c0.6-0.5,1.5-0.9,2.3-1.1C57.1,34.3,61.4,34.3,62.7,34.5z M32.7,38.9c1.3,0.7,2,1.9,2,3.4
	c0,1.2-0.2,1.9-1,2.8c-0.8,0.9-1.7,1.3-2.9,1.3c-1.1,0-2.1-0.4-2.8-1.3c-0.8-0.9-1-1.5-1-2.7c0-1.8,1.2-3.4,2.9-3.9
	C30.5,38.2,31.8,38.4,32.7,38.9z M51.9,38.9c1.3,0.7,2,1.9,2,3.4c0,1.2-0.2,1.9-1,2.8c-0.8,0.9-1.7,1.3-2.9,1.3
	c-1.1,0-2.1-0.4-2.8-1.3c-0.8-0.9-1-1.5-1-2.7c0-1.8,1.2-3.4,2.9-3.9C49.8,38.2,51,38.4,51.9,38.9z M71.1,38.9c1.3,0.7,2,1.9,2,3.4
	c0,1.2-0.2,1.9-1,2.8c-0.8,0.9-1.7,1.3-2.9,1.3c-1.1,0-2.1-0.4-2.8-1.3c-0.8-0.9-1-1.5-1-2.7c0-1.8,1.2-3.4,2.9-3.9
	C69,38.2,70.2,38.4,71.1,38.9z M35.3,50.2c0.5,0.2,1,0.6,1.2,0.8c0.4,0.3,0.4,0.3,0.1,0.5c-0.8,0.5-2,1.8-2.5,2.8
	c-1.2,2.4-1.1,5.2,0.3,7.4l0.5,0.7l-0.6,0.3c-1,0.5-2.5,1.7-3,2.4c-0.3,0.4-0.5,0.6-0.5,0.6s-0.3-0.3-0.5-0.6
	c-0.6-0.8-1.7-1.7-2.8-2.3l-0.9-0.5l0.5-0.7c1.9-2.8,1.4-6.9-1.2-9.3c-0.5-0.5-1-0.9-1.1-0.9c-0.3,0-0.1-0.3,0.3-0.6
	c0.3-0.2,0.9-0.5,1.4-0.7c0.8-0.4,1-0.4,4.4-0.3C34.4,49.8,34.5,49.8,35.3,50.2z M54.5,50.2c0.5,0.2,1,0.6,1.2,0.8
	c0.4,0.3,0.4,0.3,0.1,0.5c-0.8,0.5-2,1.8-2.5,2.8c-1.2,2.4-1.1,5.2,0.3,7.4l0.5,0.7l-0.6,0.3c-1,0.5-2.5,1.7-3,2.4
	c-0.3,0.4-0.5,0.6-0.5,0.6s-0.3-0.3-0.5-0.6c-0.6-0.8-1.7-1.7-2.8-2.3l-0.9-0.5l0.5-0.7c1.9-2.8,1.4-6.9-1.2-9.3
	c-0.5-0.5-1-0.9-1.1-0.9c-0.3,0-0.1-0.3,0.3-0.6c0.3-0.2,0.9-0.5,1.4-0.7c0.8-0.4,1-0.4,4.4-0.3C53.6,49.8,53.7,49.8,54.5,50.2z
	 M73.7,50.2c0.5,0.2,1,0.6,1.2,0.8c0.4,0.3,0.4,0.3,0.1,0.5c-0.8,0.5-2,1.8-2.5,2.8c-1.2,2.4-1.1,5.2,0.3,7.4l0.5,0.7l-0.6,0.3
	c-1,0.5-2.5,1.7-3,2.4c-0.3,0.4-0.5,0.6-0.5,0.6s-0.3-0.3-0.5-0.6c-0.6-0.8-1.7-1.7-2.8-2.3L65,62.2l0.5-0.7
	c1.9-2.8,1.4-6.9-1.2-9.3c-0.5-0.5-1-0.9-1.1-0.9c-0.3,0-0.1-0.3,0.3-0.6c0.3-0.2,0.9-0.5,1.4-0.7c0.8-0.4,1-0.4,4.4-0.3
	C72.8,49.8,72.9,49.8,73.7,50.2z M23,54.1c3.3,1.7,2.5,6.7-1.2,7.5c-1.9,0.4-3.9-0.8-4.4-2.7c-0.3-1.1-0.3-1.5,0-2.5
	c0.5-1.8,2.4-3,4.2-2.8C22,53.6,22.6,53.9,23,54.1z M42.3,54.1c2.1,1.1,2.7,3.9,1.3,5.8c-1.4,2-4.1,2.3-5.9,0.6
	c-0.7-0.7-1.3-2-1.3-2.9c0-1.4,1-3.1,2.1-3.7C39.8,53.4,41,53.4,42.3,54.1z M61.5,54.1c2.1,1.1,2.7,3.9,1.3,5.8
	c-1.4,2-4.1,2.3-5.9,0.6c-0.7-0.7-1.3-2-1.3-2.9c0-1.4,1-3.1,2.1-3.7C59.1,53.4,60.2,53.4,61.5,54.1z M80.7,54.1
	c2.1,1.1,2.7,3.9,1.3,5.8c-1.4,2-4.1,2.3-5.9,0.6c-0.7-0.7-1.3-2-1.3-2.9c0-1.4,1-3.1,2.1-3.7C78.3,53.4,79.4,53.4,80.7,54.1z
	 M25.8,65.4c1.2,0.6,2.3,1.7,2.9,3c0.4,0.9,0.4,1,0.5,4.7l0.1,3.8h-8.1h-8.1v-1.3v-1.3l2.7,0l2.7,0l0.5-0.5c0.3-0.3,0.5-0.7,0.5-0.9
	c0-0.5-0.4-1.3-0.8-1.5c-0.2-0.1-1.4-0.2-3-0.2h-2.7l0.1-0.9c0.3-2.3,2-4.3,4.2-5c0.5-0.2,1.5-0.2,4-0.2l3.4,0L25.8,65.4z M45,65.4
	c1.2,0.6,2.3,1.7,2.9,3c0.4,0.9,0.4,1,0.5,4.7l0.1,3.8h-8.1h-8.1l0.1-3.8c0.1-3.7,0.1-3.8,0.5-4.6c0.5-1.1,1.5-2.2,2.4-2.8
	c1.3-0.8,1.7-0.8,5.4-0.8l3.4,0L45,65.4z M64.2,65.4c1.2,0.6,2.3,1.7,2.9,3c0.4,0.9,0.4,1,0.5,4.7l0.1,3.8h-8.1h-8.1l0.1-3.8
	c0.1-3.7,0.1-3.8,0.5-4.6c0.5-1.1,1.5-2.2,2.4-2.8c1.3-0.8,1.7-0.8,5.4-0.8l3.4,0L64.2,65.4z M83.5,65.4c1.8,0.9,3.1,2.7,3.4,4.7
	l0.1,0.9h-2.7c-1.5,0-2.8,0.1-3,0.2c-0.4,0.2-0.8,1-0.8,1.5c0,0.2,0.2,0.6,0.5,0.9l0.5,0.5l2.7,0l2.7,0v1.3v1.3h-8.1h-8.1l0.1-3.8
	c0.1-3.7,0.1-3.8,0.5-4.6c0.5-1.1,1.5-2.2,2.4-2.8c1.3-0.8,1.7-0.8,5.4-0.8l3.4,0L83.5,65.4z"/>
</svg>
