<?xml version="1.0" encoding="utf-8"?>
<!-- Generator: Adobe Illustrator 23.1.0, SVG Export Plug-In . SVG Version: 6.00 Build 0)  -->
<svg version="1.1" id="Слой_1" xmlns="http://www.w3.org/2000/svg" xmlns:xlink="http://www.w3.org/1999/xlink" x="0px" y="0px"
	 viewBox="0 0 100 100" style="enable-background:new 0 0 100 100;" xml:space="preserve">
<style type="text/css">
	.st0{fill-rule:evenodd;clip-rule:evenodd;fill:#38ACF5;}
</style>
<path class="st0" d="M54.3,20.5c-1.1-0.7-2.6-0.7-3.8,0l-1.9,1.2c-0.1,0.1-0.3,0.1-0.5,0l-2.7-1.4c-1.3-0.6-2.8-0.4-3.9,0.5
	l-2.6,2.3c-1.3,1.2-1.5,3.2-0.5,4.6l2.7,3.8c0.2,0.2,0.1,0.5-0.1,0.7l-7.6,5.1l-1.2-0.6c-0.2-0.1-0.3-0.4-0.2-0.7l2.1-3.8
	c0.9-1.7,0.3-3.9-1.4-4.8L29.8,26c-0.9-0.5-2-0.5-3-0.1l-1.9,0.8c-0.1,0-0.2,0.1-0.4,0l-2.3-0.8c-1.1-0.4-2.3-0.2-3.2,0.4l-3,2.1
	c-1.6,1.1-2,3.3-0.8,4.9l2.2,3.1c0.2,0.2,0.1,0.5-0.1,0.7l-6.8,5.2c-0.7,0.5-1.2,1.3-1.3,2.1l-5.9,31c-0.4,2.2,1.2,4.2,3.4,4.2h20.7
	c0.5,0.3,1.1,0.5,1.8,0.5h40.3c0.9,0,1.7-0.3,2.4-0.9v0.4h21.6c2.2,0,3.8-2,3.4-4.2l-5.9-31c-0.2-0.9-0.6-1.6-1.3-2.1l-6.8-5.2
	c-0.2-0.2-0.3-0.5-0.1-0.7l2.2-3.1c1.1-1.6,0.7-3.8-0.8-4.9l-3-2.1c-0.9-0.7-2.1-0.8-3.2-0.4l-2.3,0.8c-0.1,0-0.2,0-0.4,0l-1.9-0.8
	c-1-0.4-2.1-0.4-3,0.1l-2.9,1.5c-1.7,0.9-2.4,3.1-1.4,4.8l2.1,3.8c0.1,0.2,0,0.5-0.2,0.7l-2.1,1.1c-0.1-0.1-0.3-0.2-0.4-0.3l-9-5.3
	c-0.3-0.2-0.3-0.5-0.1-0.8l2.9-3.4c1.4-1.6,1-4.1-0.8-5.2L54.3,20.5z M67,40.6L72.8,76c0,0.2,0,0.4,0,0.6h20.4
	c0.3,0,0.5-0.3,0.5-0.6l-5.9-31c0-0.1-0.1-0.2-0.2-0.3l-6.8-5.2c-1.5-1.1-1.8-3.3-0.7-4.8l2.2-3.1c0.2-0.2,0.1-0.5-0.1-0.7l-3-2.1
	c-0.1-0.1-0.3-0.1-0.5-0.1l-2.3,0.8c-0.8,0.3-1.7,0.3-2.5-0.1L72,28.7c-0.1-0.1-0.3-0.1-0.4,0l-2.9,1.5c-0.2,0.1-0.3,0.4-0.2,0.7
	l2.1,3.8c0.9,1.7,0.3,3.8-1.4,4.8L67,40.6z M30.8,39.4l0.8,0.4c0,0.1,0,0.1,0,0.2L25.7,76c0,0.2,0,0.4,0,0.6H6.7
	c-0.3,0-0.5-0.3-0.5-0.6l5.9-31c0-0.1,0.1-0.2,0.2-0.3l6.8-5.2c1.5-1.1,1.8-3.3,0.7-4.8l-2.2-3.1c-0.2-0.2-0.1-0.5,0.1-0.7l3-2.1
	c0.1-0.1,0.3-0.1,0.5-0.1l2.3,0.8c0.8,0.3,1.7,0.3,2.5-0.1l1.9-0.8c0.1-0.1,0.3-0.1,0.4,0l2.9,1.5c0.2,0.1,0.3,0.4,0.2,0.7l-2.1,3.8
	C28.5,36.4,29.1,38.5,30.8,39.4z M52.2,23c0.2-0.1,0.4-0.1,0.5,0l3.9,2.5c0.3,0.2,0.3,0.5,0.1,0.7l-2.9,3.4c-1.4,1.7-1,4.2,0.9,5.3
	l9,5.3c0.1,0.1,0.2,0.2,0.2,0.4l5.9,35.9c0.1,0.3-0.2,0.6-0.5,0.6H29.1c-0.3,0-0.5-0.3-0.5-0.6l5.9-35.9c0-0.1,0.1-0.3,0.2-0.3
	l7.9-5.3c1.6-1.1,2.1-3.3,0.9-4.9l-2.7-3.8c-0.1-0.2-0.1-0.5,0.1-0.7l2.6-2.3c0.2-0.1,0.4-0.2,0.6-0.1l2.7,1.4
	c1.1,0.5,2.4,0.5,3.4-0.2L52.2,23z M45.6,52.8c0.2,0.1,0.4,0.1,0.6-0.1l3.4-2.7l0,0c0,0,0,0,0,0v12.2c0,0.3,0.1,0.6,0.4,0.9
	c0.2,0.2,0.5,0.4,0.9,0.4c0.3,0,0.6-0.1,0.9-0.4c0.2-0.2,0.4-0.5,0.4-0.9V48.6c0-0.3-0.1-0.6-0.4-0.9c-0.2-0.2-0.5-0.4-0.9-0.4
	c-0.8,0-1.5,0.2-2.2,0.7l-2.5,2c-0.6,0.5-1,1.2-1,2v0.1C45.2,52.5,45.4,52.7,45.6,52.8z"/>
</svg>
