<?xml version="1.0" encoding="utf-8"?>
<!-- Generator: Adobe Illustrator 23.1.0, SVG Export Plug-In . SVG Version: 6.00 Build 0)  -->
<svg version="1.1" id="Слой_1" xmlns="http://www.w3.org/2000/svg" xmlns:xlink="http://www.w3.org/1999/xlink" x="0px" y="0px"
	 viewBox="0 0 100 100" style="enable-background:new 0 0 100 100;" xml:space="preserve">
<style type="text/css">
	.st0{fill:#38ACF5;}
</style>
<path class="st0" d="M55.1,22.9c-0.5-0.9-1.3-1.6-2.2-2.1C52.1,20.3,51,20,50,20c-1,0-2.1,0.3-3,0.8c-0.9,0.5-1.6,1.3-2.2,2.1
	l-6.7,11.5c-0.3,0.4-0.3,1-0.2,1.5c0.1,0.5,0.5,0.9,0.9,1.2c0.5,0.3,1,0.3,1.5,0.2c0.5-0.1,0.9-0.5,1.2-0.9l6.7-11.6
	c0.2-0.3,0.4-0.5,0.7-0.7c0.3-0.2,0.6-0.3,1-0.3c0.3,0,0.7,0.1,1,0.3c0.3,0.2,0.5,0.4,0.7,0.7l10,17.2l-4.9-1.3
	c-0.5-0.1-1-0.1-1.5,0.2c-0.5,0.3-0.8,0.7-0.9,1.2c-0.1,0.5-0.1,1,0.2,1.5c0.3,0.4,0.7,0.8,1.2,0.9l9.5,2.5c0.2,0.1,0.5,0.1,0.8,0.1
	c0.3,0,0.5-0.1,0.7-0.2c0.2-0.1,0.4-0.3,0.6-0.5c0.2-0.2,0.3-0.4,0.3-0.7l2.5-9.4c0.1-0.2,0.1-0.5,0.1-0.8c0-0.3-0.1-0.5-0.2-0.7
	c-0.1-0.2-0.3-0.4-0.5-0.6c-0.2-0.2-0.4-0.3-0.7-0.3c-0.2-0.1-0.5-0.1-0.8,0c-0.3,0-0.5,0.1-0.7,0.2c-0.2,0.1-0.4,0.3-0.6,0.5
	c-0.2,0.2-0.3,0.4-0.3,0.7l-1.3,4.8L55.1,22.9z M30.3,48.2l-4.9,1.3c-0.5,0.1-1,0.1-1.5-0.2c-0.5-0.3-0.8-0.7-0.9-1.2
	c-0.1-0.5-0.1-1,0.2-1.5c0.3-0.4,0.7-0.8,1.2-0.9l9.5-2.5c0.5-0.1,1-0.1,1.5,0.2c0.5,0.3,0.8,0.7,0.9,1.2l2.5,9.4
	c0.1,0.5,0.1,1-0.2,1.5c-0.3,0.4-0.7,0.8-1.2,0.9c-0.5,0.1-1,0.1-1.5-0.2c-0.5-0.3-0.8-0.7-0.9-1.2l-1.3-4.8l-10,17.3
	c-0.2,0.3-0.3,0.6-0.3,1c0,0.3,0.1,0.7,0.3,1c0.2,0.3,0.4,0.5,0.7,0.7c0.3,0.2,0.6,0.3,1,0.3h12.9c0.5,0,1,0.2,1.4,0.6
	c0.4,0.4,0.6,0.9,0.6,1.4c0,0.5-0.2,1-0.6,1.4c-0.4,0.4-0.9,0.6-1.4,0.6H25.4c-1,0-2-0.3-2.9-0.8c-0.9-0.5-1.6-1.2-2.2-2.1
	c-0.5-0.9-0.8-1.9-0.8-2.9c0-1,0.3-2,0.8-2.9L30.3,48.2z M73,53.8c-0.1-0.2-0.3-0.4-0.5-0.6c-0.2-0.2-0.4-0.3-0.7-0.4
	c-0.3-0.1-0.5-0.1-0.8-0.1c-0.3,0-0.5,0.1-0.7,0.2c-0.2,0.1-0.4,0.3-0.6,0.5c-0.2,0.2-0.3,0.4-0.3,0.7c-0.1,0.3-0.1,0.5,0,0.8
	c0,0.3,0.1,0.5,0.3,0.7l6.7,11.6c0.2,0.3,0.3,0.6,0.3,1c0,0.3-0.1,0.7-0.3,1c-0.2,0.3-0.4,0.5-0.7,0.7c-0.3,0.2-0.6,0.3-1,0.3H52.8
	l2.5-2.5c0.4-0.4,0.6-0.9,0.6-1.4s-0.2-1-0.6-1.4c-0.2-0.2-0.4-0.3-0.6-0.4c-0.2-0.1-0.5-0.1-0.8-0.1c-0.5,0-1,0.2-1.4,0.6l-5.9,5.8
	c-0.2,0.2-0.3,0.4-0.4,0.6c-0.1,0.2-0.2,0.5-0.2,0.7c0,0.3,0.1,0.5,0.2,0.7c0.1,0.2,0.2,0.4,0.4,0.6l5.9,5.8
	c0.4,0.4,0.9,0.6,1.4,0.6c0.3,0,0.5,0,0.8-0.1c0.2-0.1,0.5-0.2,0.6-0.4c0.2-0.2,0.3-0.4,0.4-0.6c0.1-0.2,0.1-0.5,0.2-0.7
	c0-0.3-0.1-0.5-0.1-0.7c-0.1-0.2-0.2-0.4-0.4-0.6l-2.5-2.5h21.9c1,0,2-0.3,2.9-0.8c0.9-0.5,1.6-1.2,2.2-2.1c0.5-0.9,0.8-1.9,0.8-2.9
	c0-1-0.3-2-0.8-2.9L73,53.8z"/>
</svg>
