<?xml version="1.0" encoding="utf-8"?>
<!-- Generator: Adobe Illustrator 23.1.0, SVG Export Plug-In . SVG Version: 6.00 Build 0)  -->
<svg version="1.1" id="Слой_1" xmlns="http://www.w3.org/2000/svg" xmlns:xlink="http://www.w3.org/1999/xlink" x="0px" y="0px"
	 viewBox="0 0 100 100" style="enable-background:new 0 0 100 100;" xml:space="preserve">
<style type="text/css">
	.st0{fill:#38ACF5;}
</style>
<path class="st0" d="M27.4,44.7l17.3,18.4l-8.3-18.4H27.4z M50,66l9.7-21.3H40.3L50,66z M36.5,41.2l5.7-10.6h-7.3l-8,10.6H36.5z
	 M55.3,63.1l17.3-18.4h-9L55.3,63.1z M40.5,41.2h19l-5.7-10.6h-7.6L40.5,41.2z M63.5,41.2h9.6l-8-10.6h-7.3L63.5,41.2z M67.5,27.7
	l10.7,14.2c0.3,0.3,0.4,0.7,0.4,1.1c0,0.4-0.2,0.8-0.5,1.1L51.3,72.4C51,72.8,50.5,73,50,73s-1-0.2-1.3-0.6L22,44.1
	c-0.3-0.3-0.5-0.7-0.5-1.1c0-0.4,0.1-0.8,0.4-1.1l10.7-14.2c0.3-0.5,0.8-0.7,1.4-0.7H66C66.6,27,67.1,27.2,67.5,27.7z"/>
</svg>
