<?xml version="1.0" encoding="utf-8"?>
<!-- Generator: Adobe Illustrator 23.1.0, SVG Export Plug-In . SVG Version: 6.00 Build 0)  -->
<svg version="1.1" id="Слой_1" xmlns="http://www.w3.org/2000/svg" xmlns:xlink="http://www.w3.org/1999/xlink" x="0px" y="0px"
	 viewBox="0 0 100 100" style="enable-background:new 0 0 100 100;" xml:space="preserve">
<style type="text/css">
	.st0{fill:#38ACF5;}
</style>
<path class="st0" d="M20.1,28.3c0.2-0.5,0.5-0.9,1-1.2c0.5-0.2,1-0.2,1.4,0l6.6,3c1.3,0.6,2.8,0.6,4.2,0l3.8-1.7c2.2-1,4.7-1,7,0
	l3.8,1.7c1.3,0.6,2.8,0.6,4.2,0l3.8-1.7c2.2-1,4.7-1,7,0l3.8,1.7c1.3,0.6,2.8,0.6,4.2,0l6.6-3c0.2-0.1,0.5-0.2,0.7-0.2
	c0.2,0,0.5,0.1,0.7,0.2c0.2,0.1,0.4,0.3,0.6,0.5c0.2,0.2,0.3,0.4,0.4,0.7c0.1,0.3,0.1,0.5,0.1,0.8c0,0.3-0.1,0.6-0.2,0.8
	c-0.1,0.3-0.2,0.5-0.4,0.7c-0.2,0.2-0.4,0.3-0.6,0.4l-6.6,3c-2.2,1-4.7,1-7,0l-3.8-1.7c-1.3-0.6-2.8-0.6-4.2,0l-3.8,1.7
	c-2.2,1-4.7,1-7,0l-3.8-1.7c-1.3-0.6-2.8-0.6-4.2,0l-3.8,1.7c-2.2,1-4.7,1-7,0l-6.6-3c-0.5-0.2-0.8-0.6-1-1.1
	C20,29.5,19.9,28.9,20.1,28.3z M20.1,41.1c0.2-0.5,0.5-0.9,1-1.2c0.5-0.2,1-0.2,1.4,0l6.6,3c1.3,0.6,2.8,0.6,4.2,0l3.8-1.7
	c2.2-1,4.7-1,7,0l3.8,1.7c1.3,0.6,2.8,0.6,4.2,0l3.8-1.7c2.2-1,4.7-1,7,0l3.8,1.7c1.3,0.6,2.8,0.6,4.2,0l6.6-3
	c0.2-0.1,0.5-0.2,0.7-0.2c0.2,0,0.5,0.1,0.7,0.2c0.2,0.1,0.4,0.3,0.6,0.5c0.2,0.2,0.3,0.4,0.4,0.7c0.1,0.3,0.1,0.5,0.1,0.8
	c0,0.3-0.1,0.6-0.2,0.8c-0.1,0.3-0.2,0.5-0.4,0.7c-0.2,0.2-0.4,0.3-0.6,0.4l-6.6,3c-2.2,1-4.7,1-7,0l-3.8-1.7
	c-1.3-0.6-2.8-0.6-4.2,0l-3.8,1.7c-2.2,1-4.7,1-7,0l-3.8-1.7c-1.3-0.6-2.8-0.6-4.2,0l-3.8,1.7c-2.2,1-4.7,1-7,0l-6.6-3
	c-0.5-0.2-0.8-0.6-1-1.1C20,42.2,19.9,41.6,20.1,41.1z M20.1,53.8c0.2-0.5,0.5-0.9,1-1.2c0.5-0.2,1-0.2,1.4,0l6.6,3
	c1.3,0.6,2.8,0.6,4.2,0l3.8-1.7c2.2-1,4.7-1,7,0l3.8,1.7c1.3,0.6,2.8,0.6,4.2,0l3.8-1.7c2.2-1,4.7-1,7,0l3.8,1.7
	c1.3,0.6,2.8,0.6,4.2,0l6.6-3c0.2-0.1,0.5-0.2,0.7-0.2c0.2,0,0.5,0.1,0.7,0.2c0.2,0.1,0.4,0.3,0.6,0.5c0.2,0.2,0.3,0.4,0.4,0.7
	C80,54,80,54.3,80,54.6c0,0.3-0.1,0.6-0.2,0.8c-0.1,0.3-0.2,0.5-0.4,0.7c-0.2,0.2-0.4,0.3-0.6,0.4l-6.6,3c-2.2,1-4.7,1-7,0l-3.8-1.7
	c-1.3-0.6-2.8-0.6-4.2,0l-3.8,1.7c-2.2,1-4.7,1-7,0l-3.8-1.7c-1.3-0.6-2.8-0.6-4.2,0l-3.8,1.7c-2.2,1-4.7,1-7,0l-6.6-3
	c-0.5-0.2-0.8-0.6-1-1.1C20,54.9,19.9,54.3,20.1,53.8z M20.1,66.5c0.2-0.5,0.5-0.9,1-1.2c0.5-0.2,1-0.2,1.4,0l6.6,3
	c1.3,0.6,2.8,0.6,4.2,0l3.8-1.7c2.2-1,4.7-1,7,0l3.8,1.7c1.3,0.6,2.8,0.6,4.2,0l3.8-1.7c2.2-1,4.7-1,7,0l3.8,1.7
	c1.3,0.6,2.8,0.6,4.2,0l6.6-3c0.2-0.1,0.5-0.2,0.7-0.2c0.2,0,0.5,0.1,0.7,0.2c0.2,0.1,0.4,0.3,0.6,0.5c0.2,0.2,0.3,0.4,0.4,0.7
	C80,66.8,80,67,80,67.3c0,0.3-0.1,0.6-0.2,0.8c-0.1,0.3-0.2,0.5-0.4,0.7c-0.2,0.2-0.4,0.3-0.6,0.4l-6.6,3c-2.2,1-4.7,1-7,0l-3.8-1.7
	c-1.3-0.6-2.8-0.6-4.2,0l-3.8,1.7c-2.2,1-4.7,1-7,0l-3.8-1.7c-1.3-0.6-2.8-0.6-4.2,0l-3.8,1.7c-2.2,1-4.7,1-7,0l-6.6-3
	c-0.5-0.2-0.8-0.6-1-1.1C20,67.6,19.9,67,20.1,66.5z"/>
</svg>
