<?xml version="1.0" encoding="utf-8"?>
<!-- Generator: Adobe Illustrator 23.1.0, SVG Export Plug-In . SVG Version: 6.00 Build 0)  -->
<svg version="1.1" id="Слой_1" xmlns="http://www.w3.org/2000/svg" xmlns:xlink="http://www.w3.org/1999/xlink" x="0px" y="0px"
	 viewBox="0 0 100 100" style="enable-background:new 0 0 100 100;" xml:space="preserve">
<style type="text/css">
	.st0{fill-rule:evenodd;clip-rule:evenodd;fill:#38ACF5;}
	.st1{fill:#FFFFFF;filter:url(#Adobe_OpacityMaskFilter);}
	.st2{fill-rule:evenodd;clip-rule:evenodd;}
	.st3{mask:url(#path-1-outside-1_20_421_1_);fill:none;stroke:#38ACF5;}
</style>
<path class="st0" d="M33.7,20.8c-0.5,0.2-1,0.6-1.3,1c-0.3,0.5-0.7,0.6-1.9,0.6c-1.1,0-1.6,0.2-2,0.5c-1.2,1.1-1.3,1.6-1.3,7.6
	c0,3.1-0.1,5.7-0.1,5.7c-0.1,0-0.6-0.3-1.1-0.6c-1.4-0.8-3.3-0.6-4.4,0.4c-1,1-1.7,2.7-1.5,3.9c0.3,2.1,4.7,12.9,7,17.7
	c2.3,4.7,2.6,5.8,2.6,11.2l0,4.4l-1,0.9c-1.9,1.7-1,3.7,2,4.5c2.5,0.7,7.8,1.1,11.7,0.7c4.1-0.4,6-0.9,6.9-2l0.7-0.8l0.7,0.8
	c1,1.1,2.8,1.6,6.9,2c3.9,0.3,9.2,0,11.7-0.7c3-0.9,3.8-2.8,2-4.5l-1-0.9l0-4.4c0-5.3,0.3-6.5,2.6-11.2c2.4-4.7,6.7-15.6,7-17.7
	c0.2-1.2-0.5-3-1.5-3.9c-1.1-1-3.1-1.2-4.4-0.4c-0.5,0.3-1,0.6-1.1,0.6c-0.1,0-0.1-2.5-0.1-5.7c0-6-0.1-6.5-1.3-7.6
	c-0.4-0.4-1-0.5-2-0.5c-1.2,0-1.5-0.1-2-0.7c-0.7-0.8-2.1-1.3-3.2-1.1c-0.4,0.1-1.1,0.6-1.6,1c-0.7,0.7-0.9,0.8-1.8,0.7
	c-1.8-0.2-3.2,0.9-3.6,2.7c-0.1,0.7-0.3,0.8-1.3,0.8c-1.3,0.1-2.3,0.7-3,1.8c-0.4,0.8-0.5,2.2-0.6,16.1c-0.1,11.1,0,15.6,0.2,16.7
	c0.6,2.7,0.6,5.7,0,9.5c-0.4,2.4-0.6,3.6-0.9,3.7c-0.2,0.1-0.7,0.5-1.2,0.9L50,75.2l-0.8-0.8c-0.4-0.4-1-0.9-1.2-0.9
	c-0.2-0.1-0.5-1.3-0.9-3.7c-0.6-3.7-0.5-6.8,0-9.5c0.2-1.1,0.3-5.5,0.2-16.7c-0.1-13.9-0.1-15.3-0.6-16.1c-0.6-1.1-1.6-1.7-3-1.8
	c-1,0-1.1-0.1-1.3-0.8c-0.4-1.8-1.8-2.9-3.6-2.7c-0.9,0.1-1.1,0-1.9-0.8C36.2,20.5,34.9,20.2,33.7,20.8z M36,22.8
	c0.5,0.5,0.5,0.9,0.5,7.4c0,7,0.1,7.7,1,7.4c0.3-0.1,0.4-1.3,0.4-6.1c0-6.7,0.1-7.2,1.5-7.3c1.6-0.2,1.7,0.3,1.7,7.2
	c0,4.9,0.1,6.1,0.4,6.2c0.8,0.3,1-0.4,1-4.5c0-4.4,0.2-5.3,1.3-5.5c0.5-0.1,0.8,0,1.3,0.5c0.4,0.5,0.6,1,0.6,1.7v14.4
	c0,13.4-0.1,15.6-0.5,17.4c-0.4,1.8-0.4,2.4-0.1,5.3c0.2,1.8,0.5,4.3,0.7,5.6c0.4,2.2,0.5,2.3,1.3,2.6c1.3,0.5,1.2,1.2-0.1,1.7
	c-3.6,1.4-15.5,1.1-17.1-0.4c-0.5-0.5-0.1-1.1,0.9-1.3l0.7-0.2l0-5.2c0-6.6-0.2-7.7-2.7-12.6c-1.1-2.1-2.4-5.2-3.1-6.9
	c-2.3-5.8-3.8-10-3.8-10.7c0-1.8,1.6-3,3.1-2.3c0.7,0.3,1,0.8,2.4,4.2l1.6,3.9L29,34.9c0.1-11.1,0.1-10.8,1.5-10.8
	c1.3,0,1.4,0.7,1.4,7.1c0,6,0.1,6.7,1,6.4c0.3-0.1,0.4-1.4,0.4-7c0-6.6,0-6.9,0.6-7.6C34.5,22.1,35.3,22.1,36,22.8z M66.1,23
	c0.5,0.7,0.6,1,0.6,7.6c0,5.6,0.1,6.9,0.4,7c0.9,0.3,1-0.4,1-6.4c0-6.4,0.1-7.1,1.4-7.1c1.4,0,1.4-0.3,1.5,10.8l0.1,10.3l1.6-3.9
	c1.4-3.5,1.7-3.9,2.4-4.2c1.5-0.6,3.1,0.5,3.1,2.3c0,0.6-1.5,4.8-3.8,10.7c-0.7,1.7-2.1,4.8-3.1,6.9c-2.5,5-2.7,6-2.7,12.6l0,5.2
	l0.7,0.2c1,0.2,1.4,0.8,0.9,1.3c-1.6,1.6-13.4,1.9-17.1,0.4c-1.3-0.5-1.4-1.2-0.1-1.7c0.9-0.3,0.9-0.4,1.3-2.6
	c0.2-1.2,0.6-3.7,0.7-5.6c0.3-2.9,0.3-3.6-0.1-5.3c-0.4-1.8-0.5-3.9-0.5-17.4V29.8c0-0.6,0.2-1.2,0.6-1.7c0.5-0.6,0.8-0.7,1.3-0.5
	c1.1,0.3,1.3,1.2,1.3,5.5c0,4,0.2,4.8,1,4.5c0.3-0.1,0.4-1.3,0.4-6.2c0-6.9,0.1-7.4,1.7-7.2c1.4,0.1,1.5,0.7,1.5,7.3
	c0,4.8,0.1,6,0.4,6.1c0.9,0.3,1-0.4,1-7.4c0-6.6,0-6.9,0.5-7.4C64.8,22.1,65.5,22.1,66.1,23z"/>
<defs>
	<filter id="Adobe_OpacityMaskFilter" filterUnits="userSpaceOnUse" x="19.5" y="20" width="61" height="60">
		<feColorMatrix  type="matrix" values="1 0 0 0 0  0 1 0 0 0  0 0 1 0 0  0 0 0 1 0"/>
	</filter>
</defs>
<mask maskUnits="userSpaceOnUse" x="19.5" y="20" width="61" height="60" id="path-1-outside-1_20_421_1_">
	<rect x="19" y="19.5" class="st1" width="62" height="61"/>
	<path class="st2" d="M33.7,20.8c-0.5,0.2-1,0.6-1.3,1c-0.3,0.5-0.7,0.6-1.9,0.6c-1.1,0-1.6,0.2-2,0.5c-1.2,1.1-1.3,1.6-1.3,7.6
		c0,3.1-0.1,5.7-0.1,5.7c-0.1,0-0.6-0.3-1.1-0.6c-1.4-0.8-3.3-0.6-4.4,0.4c-1,1-1.7,2.7-1.5,3.9c0.3,2.1,4.7,12.9,7,17.7
		c2.3,4.7,2.6,5.8,2.6,11.2l0,4.4l-1,0.9c-1.9,1.7-1,3.7,2,4.5c2.5,0.7,7.8,1.1,11.7,0.7c4.1-0.4,6-0.9,6.9-2l0.7-0.8l0.7,0.8
		c1,1.1,2.8,1.6,6.9,2c3.9,0.3,9.2,0,11.7-0.7c3-0.9,3.8-2.8,2-4.5l-1-0.9l0-4.4c0-5.3,0.3-6.5,2.6-11.2c2.4-4.7,6.7-15.6,7-17.7
		c0.2-1.2-0.5-3-1.5-3.9c-1.1-1-3.1-1.2-4.4-0.4c-0.5,0.3-1,0.6-1.1,0.6c-0.1,0-0.1-2.5-0.1-5.7c0-6-0.1-6.5-1.3-7.6
		c-0.4-0.4-1-0.5-2-0.5c-1.2,0-1.5-0.1-2-0.7c-0.7-0.8-2.1-1.3-3.2-1.1c-0.4,0.1-1.1,0.6-1.6,1c-0.7,0.7-0.9,0.8-1.8,0.7
		c-1.8-0.2-3.2,0.9-3.6,2.7c-0.1,0.7-0.3,0.8-1.3,0.8c-1.3,0.1-2.3,0.7-3,1.8c-0.4,0.8-0.5,2.2-0.6,16.1c-0.1,11.1,0,15.6,0.2,16.7
		c0.6,2.7,0.6,5.7,0,9.5c-0.4,2.4-0.6,3.6-0.9,3.7c-0.2,0.1-0.7,0.5-1.2,0.9L50,75.2l-0.8-0.8c-0.4-0.4-1-0.9-1.2-0.9
		c-0.2-0.1-0.5-1.3-0.9-3.7c-0.6-3.7-0.5-6.8,0-9.5c0.2-1.1,0.3-5.5,0.2-16.7c-0.1-13.9-0.1-15.3-0.6-16.1c-0.6-1.1-1.6-1.7-3-1.8
		c-1,0-1.1-0.1-1.3-0.8c-0.4-1.8-1.8-2.9-3.6-2.7c-0.9,0.1-1.1,0-1.9-0.8C36.2,20.5,34.9,20.2,33.7,20.8z M36,22.8
		c0.5,0.5,0.5,0.9,0.5,7.4c0,7,0.1,7.7,1,7.4c0.3-0.1,0.4-1.3,0.4-6.1c0-6.7,0.1-7.2,1.5-7.3c1.6-0.2,1.7,0.3,1.7,7.2
		c0,4.9,0.1,6.1,0.4,6.2c0.8,0.3,1-0.4,1-4.5c0-4.4,0.2-5.3,1.3-5.5c0.5-0.1,0.8,0,1.3,0.5c0.4,0.5,0.6,1,0.6,1.7v14.4
		c0,13.4-0.1,15.6-0.5,17.4c-0.4,1.8-0.4,2.4-0.1,5.3c0.2,1.8,0.5,4.3,0.7,5.6c0.4,2.2,0.5,2.3,1.3,2.6c1.3,0.5,1.2,1.2-0.1,1.7
		c-3.6,1.4-15.5,1.1-17.1-0.4c-0.5-0.5-0.1-1.1,0.9-1.3l0.7-0.2l0-5.2c0-6.6-0.2-7.7-2.7-12.6c-1.1-2.1-2.4-5.2-3.1-6.9
		c-2.3-5.8-3.8-10-3.8-10.7c0-1.8,1.6-3,3.1-2.3c0.7,0.3,1,0.8,2.4,4.2l1.6,3.9L29,34.9c0.1-11.1,0.1-10.8,1.5-10.8
		c1.3,0,1.4,0.7,1.4,7.1c0,6,0.1,6.7,1,6.4c0.3-0.1,0.4-1.4,0.4-7c0-6.6,0-6.9,0.6-7.6C34.5,22.1,35.3,22.1,36,22.8z M66.1,23
		c0.5,0.7,0.6,1,0.6,7.6c0,5.6,0.1,6.9,0.4,7c0.9,0.3,1-0.4,1-6.4c0-6.4,0.1-7.1,1.4-7.1c1.4,0,1.4-0.3,1.5,10.8l0.1,10.3l1.6-3.9
		c1.4-3.5,1.7-3.9,2.4-4.2c1.5-0.6,3.1,0.5,3.1,2.3c0,0.6-1.5,4.8-3.8,10.7c-0.7,1.7-2.1,4.8-3.1,6.9c-2.5,5-2.7,6-2.7,12.6l0,5.2
		l0.7,0.2c1,0.2,1.4,0.8,0.9,1.3c-1.6,1.6-13.4,1.9-17.1,0.4c-1.3-0.5-1.4-1.2-0.1-1.7c0.9-0.3,0.9-0.4,1.3-2.6
		c0.2-1.2,0.6-3.7,0.7-5.6c0.3-2.9,0.3-3.6-0.1-5.3c-0.4-1.8-0.5-3.9-0.5-17.4V29.8c0-0.6,0.2-1.2,0.6-1.7c0.5-0.6,0.8-0.7,1.3-0.5
		c1.1,0.3,1.3,1.2,1.3,5.5c0,4,0.2,4.8,1,4.5c0.3-0.1,0.4-1.3,0.4-6.2c0-6.9,0.1-7.4,1.7-7.2c1.4,0.1,1.5,0.7,1.5,7.3
		c0,4.8,0.1,6,0.4,6.1c0.9,0.3,1-0.4,1-7.4c0-6.6,0-6.9,0.5-7.4C64.8,22.1,65.5,22.1,66.1,23z"/>
</mask>
<path class="st3" d="M33.7,20.8c-0.5,0.2-1,0.6-1.3,1c-0.3,0.5-0.7,0.6-1.9,0.6c-1.1,0-1.6,0.2-2,0.5c-1.2,1.1-1.3,1.6-1.3,7.6
	c0,3.1-0.1,5.7-0.1,5.7c-0.1,0-0.6-0.3-1.1-0.6c-1.4-0.8-3.3-0.6-4.4,0.4c-1,1-1.7,2.7-1.5,3.9c0.3,2.1,4.7,12.9,7,17.7
	c2.3,4.7,2.6,5.8,2.6,11.2l0,4.4l-1,0.9c-1.9,1.7-1,3.7,2,4.5c2.5,0.7,7.8,1.1,11.7,0.7c4.1-0.4,6-0.9,6.9-2l0.7-0.8l0.7,0.8
	c1,1.1,2.8,1.6,6.9,2c3.9,0.3,9.2,0,11.7-0.7c3-0.9,3.8-2.8,2-4.5l-1-0.9l0-4.4c0-5.3,0.3-6.5,2.6-11.2c2.4-4.7,6.7-15.6,7-17.7
	c0.2-1.2-0.5-3-1.5-3.9c-1.1-1-3.1-1.2-4.4-0.4c-0.5,0.3-1,0.6-1.1,0.6c-0.1,0-0.1-2.5-0.1-5.7c0-6-0.1-6.5-1.3-7.6
	c-0.4-0.4-1-0.5-2-0.5c-1.2,0-1.5-0.1-2-0.7c-0.7-0.8-2.1-1.3-3.2-1.1c-0.4,0.1-1.1,0.6-1.6,1c-0.7,0.7-0.9,0.8-1.8,0.7
	c-1.8-0.2-3.2,0.9-3.6,2.7c-0.1,0.7-0.3,0.8-1.3,0.8c-1.3,0.1-2.3,0.7-3,1.8c-0.4,0.8-0.5,2.2-0.6,16.1c-0.1,11.1,0,15.6,0.2,16.7
	c0.6,2.7,0.6,5.7,0,9.5c-0.4,2.4-0.6,3.6-0.9,3.7c-0.2,0.1-0.7,0.5-1.2,0.9L50,75.2l-0.8-0.8c-0.4-0.4-1-0.9-1.2-0.9
	c-0.2-0.1-0.5-1.3-0.9-3.7c-0.6-3.7-0.5-6.8,0-9.5c0.2-1.1,0.3-5.5,0.2-16.7c-0.1-13.9-0.1-15.3-0.6-16.1c-0.6-1.1-1.6-1.7-3-1.8
	c-1,0-1.1-0.1-1.3-0.8c-0.4-1.8-1.8-2.9-3.6-2.7c-0.9,0.1-1.1,0-1.9-0.8C36.2,20.5,34.9,20.2,33.7,20.8z M36,22.8
	c0.5,0.5,0.5,0.9,0.5,7.4c0,7,0.1,7.7,1,7.4c0.3-0.1,0.4-1.3,0.4-6.1c0-6.7,0.1-7.2,1.5-7.3c1.6-0.2,1.7,0.3,1.7,7.2
	c0,4.9,0.1,6.1,0.4,6.2c0.8,0.3,1-0.4,1-4.5c0-4.4,0.2-5.3,1.3-5.5c0.5-0.1,0.8,0,1.3,0.5c0.4,0.5,0.6,1,0.6,1.7v14.4
	c0,13.4-0.1,15.6-0.5,17.4c-0.4,1.8-0.4,2.4-0.1,5.3c0.2,1.8,0.5,4.3,0.7,5.6c0.4,2.2,0.5,2.3,1.3,2.6c1.3,0.5,1.2,1.2-0.1,1.7
	c-3.6,1.4-15.5,1.1-17.1-0.4c-0.5-0.5-0.1-1.1,0.9-1.3l0.7-0.2l0-5.2c0-6.6-0.2-7.7-2.7-12.6c-1.1-2.1-2.4-5.2-3.1-6.9
	c-2.3-5.8-3.8-10-3.8-10.7c0-1.8,1.6-3,3.1-2.3c0.7,0.3,1,0.8,2.4,4.2l1.6,3.9L29,34.9c0.1-11.1,0.1-10.8,1.5-10.8
	c1.3,0,1.4,0.7,1.4,7.1c0,6,0.1,6.7,1,6.4c0.3-0.1,0.4-1.4,0.4-7c0-6.6,0-6.9,0.6-7.6C34.5,22.1,35.3,22.1,36,22.8z M66.1,23
	c0.5,0.7,0.6,1,0.6,7.6c0,5.6,0.1,6.9,0.4,7c0.9,0.3,1-0.4,1-6.4c0-6.4,0.1-7.1,1.4-7.1c1.4,0,1.4-0.3,1.5,10.8l0.1,10.3l1.6-3.9
	c1.4-3.5,1.7-3.9,2.4-4.2c1.5-0.6,3.1,0.5,3.1,2.3c0,0.6-1.5,4.8-3.8,10.7c-0.7,1.7-2.1,4.8-3.1,6.9c-2.5,5-2.7,6-2.7,12.6l0,5.2
	l0.7,0.2c1,0.2,1.4,0.8,0.9,1.3c-1.6,1.6-13.4,1.9-17.1,0.4c-1.3-0.5-1.4-1.2-0.1-1.7c0.9-0.3,0.9-0.4,1.3-2.6
	c0.2-1.2,0.6-3.7,0.7-5.6c0.3-2.9,0.3-3.6-0.1-5.3c-0.4-1.8-0.5-3.9-0.5-17.4V29.8c0-0.6,0.2-1.2,0.6-1.7c0.5-0.6,0.8-0.7,1.3-0.5
	c1.1,0.3,1.3,1.2,1.3,5.5c0,4,0.2,4.8,1,4.5c0.3-0.1,0.4-1.3,0.4-6.2c0-6.9,0.1-7.4,1.7-7.2c1.4,0.1,1.5,0.7,1.5,7.3
	c0,4.8,0.1,6,0.4,6.1c0.9,0.3,1-0.4,1-7.4c0-6.6,0-6.9,0.5-7.4C64.8,22.1,65.5,22.1,66.1,23z"/>
</svg>
